<svg width="384" height="146" viewBox="0 0 384 146" fill="none" xmlns="http://www.w3.org/2000/svg">
    <path fill-rule="evenodd" clip-rule="evenodd" d="M256.466 1.00006C256.466 4.18122 258.944 6.76006 262 6.76006C265.052 6.7601 267.526 4.18107 267.526 1.0001L377.036 1.00009C380.088 1.00009 382.562 3.57913 382.562 6.76009V12.5201C381.036 12.5201 379.799 13.8096 379.799 15.4001C379.799 16.9906 381.036 18.2801 382.562 18.2801V24.0401C381.036 24.0401 379.799 25.3296 379.799 26.9201C379.799 28.5106 381.036 29.8001 382.562 29.8001V35.5601C381.036 35.5601 379.799 36.8496 379.799 38.4401C379.799 40.0305 381.036 41.3201 382.562 41.3201V47.0801C381.036 47.0801 379.799 48.3696 379.799 49.9601C379.799 51.5505 381.036 52.8401 382.562 52.8401V61.4801C376.458 61.4801 371.51 66.6374 371.51 73C371.51 79.3624 376.458 84.52 382.562 84.52V93.16C381.036 93.16 379.799 94.4495 379.799 96.04C379.799 97.6306 381.036 98.92 382.562 98.92V104.68C381.036 104.68 379.799 105.969 379.799 107.56C379.799 109.151 381.036 110.44 382.562 110.44V116.2C381.036 116.2 379.799 117.489 379.799 119.08C379.799 120.671 381.036 121.96 382.562 121.96V127.72C381.036 127.72 379.799 129.009 379.799 130.6C379.799 132.191 381.036 133.48 382.562 133.48V139.24C382.562 142.421 380.088 145 377.036 145L267.526 145C267.526 141.819 265.052 139.24 262 139.24C258.944 139.24 256.466 141.819 256.466 145H6.53379C3.47757 145 1 142.421 1 139.24V133.48C2.52811 133.48 3.76689 132.19 3.76689 130.6C3.76689 129.009 2.52811 127.72 1 127.72V121.96C2.52811 121.96 3.76689 120.67 3.76689 119.08C3.76689 117.489 2.52811 116.2 1 116.2V110.44C2.52811 110.44 3.76689 109.15 3.76689 107.56C3.76689 105.969 2.52811 104.68 1 104.68V98.92C2.52811 98.92 3.76689 97.6305 3.76689 96.04C3.76689 94.4495 2.52811 93.16 1 93.16V84.52C7.11245 84.52 12.0676 79.3626 12.0676 73C12.0676 66.6377 7.11245 61.48 1 61.48V52.84C2.52811 52.84 3.76689 51.5506 3.76689 49.96C3.76689 48.3695 2.52811 47.08 1 47.08V41.32C2.52811 41.32 3.76689 40.0306 3.76689 38.44C3.76689 36.8495 2.52811 35.56 1 35.56V29.8C2.52811 29.8 3.76689 28.5106 3.76689 26.92C3.76689 25.3295 2.52811 24.04 1 24.04V18.28C2.52811 18.28 3.76689 16.9906 3.76689 15.4001C3.76689 13.8095 2.52811 12.5201 1 12.5201V6.76006C1 3.57891 3.47756 1.00006 6.53379 1.00006H256.466ZM262 7.48006C261.618 7.48006 261.308 7.80241 261.308 8.20006C261.308 8.59771 261.618 8.92005 262 8.92005C262.381 8.9201 262.691 8.59755 262.691 8.2001C262.691 7.80265 262.381 7.4801 262 7.48006ZM262 10.3601C261.618 10.3601 261.308 10.6824 261.308 11.0801C261.308 11.4777 261.618 11.8001 262 11.8001C262.381 11.8001 262.691 11.4775 262.691 11.0801C262.691 10.6827 262.381 10.3601 262 10.3601ZM262 13.2401C261.618 13.2401 261.308 13.5624 261.308 13.9601C261.308 14.3577 261.618 14.68 262 14.68C262.381 14.6801 262.691 14.3575 262.691 13.9601C262.691 13.5626 262.381 13.2401 262 13.2401ZM262 16.12C261.618 16.12 261.308 16.4424 261.308 16.84C261.308 17.2377 261.618 17.56 262 17.56C262.381 17.5601 262.691 17.2375 262.691 16.8401C262.691 16.4427 262.381 16.1201 262 16.12ZM262 19C261.618 19 261.308 19.3224 261.308 19.72C261.308 20.1177 261.618 20.44 262 20.44C262.381 20.4401 262.691 20.1175 262.691 19.7201C262.691 19.3227 262.381 19.0001 262 19ZM262 21.88C261.618 21.88 261.308 22.2024 261.308 22.6C261.308 22.9977 261.618 23.32 262 23.32C262.381 23.3201 262.691 22.9975 262.691 22.6001C262.691 22.2026 262.381 21.8801 262 21.88ZM262 24.76C261.618 24.76 261.308 25.0824 261.308 25.48C261.308 25.8777 261.618 26.2 262 26.2C262.381 26.2001 262.691 25.8775 262.691 25.4801C262.691 25.0826 262.381 24.7601 262 24.76ZM262 27.64C261.618 27.64 261.308 27.9624 261.308 28.36C261.308 28.7577 261.618 29.08 262 29.08C262.381 29.0801 262.691 28.7575 262.691 28.3601C262.691 27.9626 262.381 27.6401 262 27.64ZM262 30.52C261.618 30.52 261.308 30.8424 261.308 31.24C261.308 31.6377 261.618 31.96 262 31.96C262.381 31.9601 262.691 31.6375 262.691 31.2401C262.691 30.8426 262.381 30.5201 262 30.52ZM262 33.4C261.618 33.4 261.308 33.7224 261.308 34.12C261.308 34.5177 261.618 34.84 262 34.84C262.381 34.8401 262.691 34.5175 262.691 34.1201C262.691 33.7226 262.381 33.4001 262 33.4ZM262 36.28C261.618 36.28 261.308 36.6024 261.308 37C261.308 37.3977 261.618 37.72 262 37.72C262.381 37.7201 262.691 37.3975 262.691 37.0001C262.691 36.6026 262.381 36.2801 262 36.28ZM262 39.16C261.618 39.16 261.308 39.4824 261.308 39.88C261.308 40.2777 261.618 40.6 262 40.6C262.381 40.6001 262.691 40.2775 262.691 39.8801C262.691 39.4826 262.381 39.1601 262 39.16ZM262 42.04C261.618 42.04 261.308 42.3624 261.308 42.76C261.308 43.1577 261.618 43.48 262 43.48C262.381 43.4801 262.691 43.1575 262.691 42.7601C262.691 42.3626 262.381 42.0401 262 42.04ZM262 44.92C261.618 44.92 261.308 45.2424 261.308 45.64C261.308 46.0377 261.618 46.36 262 46.36C262.381 46.3601 262.691 46.0375 262.691 45.6401C262.691 45.2426 262.381 44.9201 262 44.92ZM262 47.8C261.618 47.8 261.308 48.1224 261.308 48.52C261.308 48.9177 261.618 49.24 262 49.24C262.381 49.2401 262.691 48.9175 262.691 48.5201C262.691 48.1226 262.381 47.8001 262 47.8ZM262 50.68C261.618 50.68 261.308 51.0024 261.308 51.4C261.308 51.7977 261.618 52.12 262 52.12C262.381 52.1201 262.691 51.7975 262.691 51.4001C262.691 51.0026 262.381 50.6801 262 50.68ZM262 53.56C261.618 53.56 261.308 53.8824 261.308 54.28C261.308 54.6777 261.618 55 262 55C262.381 55.0001 262.691 54.6775 262.691 54.2801C262.691 53.8826 262.381 53.5601 262 53.56ZM262 56.44C261.618 56.44 261.308 56.7624 261.308 57.16C261.308 57.5577 261.618 57.88 262 57.88C262.381 57.8801 262.691 57.5575 262.691 57.1601C262.691 56.7626 262.381 56.4401 262 56.44ZM262 59.32C261.618 59.32 261.308 59.6424 261.308 60.04C261.308 60.4377 261.618 60.76 262 60.76C262.381 60.7601 262.691 60.4375 262.691 60.0401C262.691 59.6426 262.381 59.3201 262 59.32ZM262 62.2C261.618 62.2 261.308 62.5224 261.308 62.92C261.308 63.3177 261.618 63.64 262 63.64C262.381 63.6401 262.691 63.3175 262.691 62.9201C262.691 62.5226 262.381 62.2001 262 62.2ZM262 65.08C261.618 65.08 261.308 65.4024 261.308 65.8C261.308 66.1977 261.618 66.52 262 66.52C262.381 66.5201 262.691 66.1975 262.691 65.8001C262.691 65.4026 262.381 65.0801 262 65.08ZM262 67.96C261.618 67.96 261.308 68.2823 261.308 68.68C261.308 69.0777 261.618 69.4 262 69.4C262.381 69.4001 262.691 69.0775 262.691 68.6801C262.691 68.2826 262.381 67.9601 262 67.96ZM262 70.84C261.618 70.84 261.308 71.1623 261.308 71.56C261.308 71.9577 261.618 72.28 262 72.28C262.381 72.2801 262.691 71.9575 262.691 71.5601C262.691 71.1626 262.381 70.8401 262 70.84ZM262 73.72C261.618 73.72 261.308 74.0426 261.308 74.44C261.308 74.8374 261.618 75.16 262 75.16C262.381 75.1601 262.691 74.8377 262.691 74.4401C262.691 74.0424 262.381 73.72 262 73.72ZM262 76.6C261.618 76.6 261.308 76.9226 261.308 77.32C261.308 77.7174 261.618 78.04 262 78.04C262.381 78.04 262.691 77.7177 262.691 77.3201C262.691 76.9224 262.381 76.6001 262 76.6ZM262 79.48C261.618 79.48 261.308 79.8026 261.308 80.2C261.308 80.5974 261.618 80.92 262 80.92C262.381 80.92 262.691 80.5977 262.691 80.2001C262.691 79.8024 262.381 79.48 262 79.48ZM262 82.36C261.618 82.36 261.308 82.6826 261.308 83.08C261.308 83.4774 261.618 83.8 262 83.8C262.381 83.8 262.691 83.4777 262.691 83.08C262.691 82.6824 262.381 82.36 262 82.36ZM262 85.24C261.618 85.24 261.308 85.5626 261.308 85.96C261.308 86.3574 261.618 86.68 262 86.68C262.381 86.68 262.691 86.3577 262.691 85.96C262.691 85.5624 262.381 85.24 262 85.24ZM262 88.12C261.618 88.12 261.308 88.4426 261.308 88.84C261.308 89.2374 261.618 89.56 262 89.56C262.381 89.56 262.691 89.2377 262.691 88.84C262.691 88.4424 262.381 88.12 262 88.12ZM262 91C261.618 91 261.308 91.3226 261.308 91.72C261.308 92.1174 261.618 92.44 262 92.44C262.381 92.44 262.691 92.1177 262.691 91.72C262.691 91.3224 262.381 91 262 91ZM262 93.88C261.618 93.88 261.308 94.2025 261.308 94.6C261.308 94.9974 261.618 95.32 262 95.32C262.381 95.32 262.691 94.9977 262.691 94.6C262.691 94.2024 262.381 93.88 262 93.88ZM262 96.76C261.618 96.76 261.308 97.0826 261.308 97.48C261.308 97.8774 261.618 98.2 262 98.2C262.381 98.2 262.691 97.8777 262.691 97.48C262.691 97.0824 262.381 96.76 262 96.76ZM262 99.64C261.618 99.64 261.308 99.9625 261.308 100.36C261.308 100.757 261.618 101.08 262 101.08C262.381 101.08 262.691 100.758 262.691 100.36C262.691 99.9624 262.381 99.64 262 99.64ZM262 102.52C261.618 102.52 261.308 102.843 261.308 103.24C261.308 103.637 261.618 103.96 262 103.96C262.381 103.96 262.691 103.638 262.691 103.24C262.691 102.842 262.381 102.52 262 102.52ZM262 105.4C261.618 105.4 261.308 105.723 261.308 106.12C261.308 106.517 261.618 106.84 262 106.84C262.381 106.84 262.691 106.518 262.691 106.12C262.691 105.722 262.381 105.4 262 105.4ZM262 108.28C261.618 108.28 261.308 108.603 261.308 109C261.308 109.397 261.618 109.72 262 109.72C262.381 109.72 262.691 109.398 262.691 109C262.691 108.602 262.381 108.28 262 108.28ZM262 111.16C261.618 111.16 261.308 111.483 261.308 111.88C261.308 112.277 261.618 112.6 262 112.6C262.381 112.6 262.691 112.278 262.691 111.88C262.691 111.482 262.381 111.16 262 111.16ZM262 114.04C261.618 114.04 261.308 114.363 261.308 114.76C261.308 115.157 261.618 115.48 262 115.48C262.381 115.48 262.691 115.158 262.691 114.76C262.691 114.362 262.381 114.04 262 114.04ZM262 116.92C261.618 116.92 261.308 117.243 261.308 117.64C261.308 118.037 261.618 118.36 262 118.36C262.381 118.36 262.691 118.038 262.691 117.64C262.691 117.242 262.381 116.92 262 116.92ZM262 119.8C261.618 119.8 261.308 120.123 261.308 120.52C261.308 120.917 261.618 121.24 262 121.24C262.381 121.24 262.691 120.918 262.691 120.52C262.691 120.122 262.381 119.8 262 119.8ZM262 122.68C261.618 122.68 261.308 123.003 261.308 123.4C261.308 123.797 261.618 124.12 262 124.12C262.381 124.12 262.691 123.798 262.691 123.4C262.691 123.002 262.381 122.68 262 122.68ZM262 125.56C261.618 125.56 261.308 125.883 261.308 126.28C261.308 126.677 261.618 127 262 127C262.381 127 262.691 126.678 262.691 126.28C262.691 125.882 262.381 125.56 262 125.56ZM262 128.44C261.618 128.44 261.308 128.763 261.308 129.16C261.308 129.557 261.618 129.88 262 129.88C262.381 129.88 262.691 129.558 262.691 129.16C262.691 128.762 262.381 128.44 262 128.44ZM262 131.32C261.618 131.32 261.308 131.643 261.308 132.04C261.308 132.437 261.618 132.76 262 132.76C262.381 132.76 262.691 132.438 262.691 132.04C262.691 131.642 262.381 131.32 262 131.32ZM262 134.2C261.618 134.2 261.308 134.523 261.308 134.92C261.308 135.317 261.618 135.64 262 135.64C262.381 135.64 262.691 135.318 262.691 134.92C262.691 134.522 262.381 134.2 262 134.2ZM262 137.08C261.618 137.08 261.308 137.403 261.308 137.8C261.308 138.197 261.618 138.52 262 138.52C262.381 138.52 262.691 138.198 262.691 137.8C262.691 137.402 262.381 137.08 262 137.08Z" fill="white"/>
    <path d="M262 6.76006L262 6.26006H262V6.76006ZM256.466 1.00006H256.966V0.500061H256.466V1.00006ZM267.526 1.0001L267.526 0.500102L267.026 0.500102V1.0001H267.526ZM377.036 1.00009L377.036 0.500092L377.036 1.00009ZM382.562 12.5201V13.0201H383.062V12.5201H382.562ZM382.562 18.2801H383.062V17.7801H382.562V18.2801ZM382.562 24.0401V24.5401H383.062V24.0401H382.562ZM382.562 29.8001H383.062V29.3001H382.562V29.8001ZM382.562 35.5601V36.0601H383.062V35.5601H382.562ZM382.562 41.3201H383.062V40.8201H382.562V41.3201ZM382.562 47.0801V47.5801H383.062V47.0801H382.562ZM382.562 52.8401H383.062V52.3401H382.562V52.8401ZM382.562 61.4801V61.9801H383.062V61.4801H382.562ZM382.562 84.52H383.062V84.02L382.562 84.02L382.562 84.52ZM382.562 93.16V93.66H383.062V93.16H382.562ZM382.562 98.92H383.062V98.42H382.562V98.92ZM382.562 104.68V105.18H383.062V104.68H382.562ZM382.562 110.44H383.062V109.94L382.562 109.94L382.562 110.44ZM382.562 116.2V116.7H383.062V116.2H382.562ZM382.562 121.96H383.062V121.46H382.562V121.96ZM382.562 127.72V128.22H383.062V127.72H382.562ZM382.562 133.48H383.062V132.98H382.562V133.48ZM377.036 145L377.036 144.5H377.036L377.036 145ZM267.526 145H267.026V145.5L267.526 145.5L267.526 145ZM262 139.24L262 138.74H262V139.24ZM256.466 145V145.5H256.966V145H256.466ZM1 133.48V132.98H0.5V133.48H1ZM1 127.72H0.5V128.22H1V127.72ZM1 121.96V121.46H0.5V121.96H1ZM1 116.2H0.5V116.7H1V116.2ZM1 110.44V109.94H0.5V110.44H1ZM1 104.68H0.5V105.18H1V104.68ZM1 98.92V98.42H0.5V98.92H1ZM1 93.16H0.5V93.66H1V93.16ZM1 84.52V84.02H0.5V84.52H1ZM1 61.48H0.5V61.98H1V61.48ZM1 52.84V52.34H0.5V52.84H1ZM1 47.08H0.5V47.58H1V47.08ZM1 41.32V40.82H0.5V41.32H1ZM1 35.56H0.5V36.06H1V35.56ZM1 29.8V29.3H0.5V29.8H1ZM1 24.04H0.5V24.54H1V24.04ZM1 18.28V17.78H0.5V18.28H1ZM1 12.5201H0.5V13.0201H1V12.5201ZM262 7.48006L262 6.98006H262V7.48006ZM262 8.92005L262 8.42005H262V8.92005ZM262 10.3601L262 9.86005H262V10.3601ZM262 11.8001L262 11.3001H262V11.8001ZM262 13.2401L262 12.7401H262V13.2401ZM262 14.68L262 14.18H262V14.68ZM262 16.12L262 15.62H262V16.12ZM262 17.56L262 17.06H262V17.56ZM262 19L262 18.5H262V19ZM262 20.44L262 19.94H262V20.44ZM262 21.88L262 21.38H262V21.88ZM262 23.32L262 22.82H262V23.32ZM262 24.76L262 24.26H262V24.76ZM262 26.2L262 25.7H262V26.2ZM262 27.64L262 27.14H262V27.64ZM262 29.08L262 28.58H262V29.08ZM262 30.52L262 30.02H262V30.52ZM262 31.96L262 31.46H262V31.96ZM262 33.4L262 32.9H262V33.4ZM262 34.84L262 34.34H262V34.84ZM262 36.28L262 35.78H262V36.28ZM262 37.72L262 37.22H262V37.72ZM262 39.16L262 38.66H262V39.16ZM262 40.6L262 40.1H262V40.6ZM262 42.04L262 41.54H262V42.04ZM262 43.48L262 42.98H262V43.48ZM262 44.92L262 44.42H262V44.92ZM262 46.36L262 45.86H262V46.36ZM262 47.8L262 47.3H262V47.8ZM262 49.24L262 48.74H262V49.24ZM262 50.68L262 50.18H262V50.68ZM262 52.12L262 51.62H262V52.12ZM262 53.56L262 53.06H262V53.56ZM262 55L262 54.5H262V55ZM262 56.44L262 55.94H262V56.44ZM262 57.88L262 57.38H262V57.88ZM262 59.32L262 58.82H262V59.32ZM262 60.76L262 60.26H262V60.76ZM262 62.2L262 61.7H262V62.2ZM262 63.64L262 63.14H262V63.64ZM262 65.08L262 64.58H262V65.08ZM262 66.52L262 66.02H262V66.52ZM262 67.96L262 67.46H262V67.96ZM262 69.4L262 68.9H262V69.4ZM262 70.84L262 70.34H262V70.84ZM262 72.28L262 71.78H262V72.28ZM262 73.72L262 73.22H262V73.72ZM262 75.16L262 74.66H262V75.16ZM262 76.6L262 76.1H262V76.6ZM262 78.04L262 77.54H262V78.04ZM262 79.48L262 78.98H262V79.48ZM262 80.92L262 80.42H262V80.92ZM262 82.36L262 81.86H262V82.36ZM262 83.8L262 83.3H262V83.8ZM262 85.24L262 84.74H262V85.24ZM262 86.68L262 86.18H262V86.68ZM262 88.12L262 87.62H262V88.12ZM262 89.56L262 89.06H262V89.56ZM262 91L262 90.5H262V91ZM262 92.44L262 91.94H262V92.44ZM262 93.88L262 93.38H262V93.88ZM262 95.32L262 94.82H262V95.32ZM262 96.76L262 96.26H262V96.76ZM262 98.2L262 97.7H262V98.2ZM262 99.64L262 99.14H262V99.64ZM262 101.08L262 100.58H262V101.08ZM262 102.52L262 102.02H262V102.52ZM262 103.96L262 103.46H262V103.96ZM262 105.4L262 104.9H262V105.4ZM262 106.84L262 106.34H262V106.84ZM262 108.28L262 107.78H262V108.28ZM262 109.72L262 109.22H262V109.72ZM262 111.16L262 110.66H262V111.16ZM262 112.6L262 112.1H262V112.6ZM262 114.04L262 113.54H262V114.04ZM262 115.48L262 114.98H262V115.48ZM262 116.92L262 116.42H262V116.92ZM262 118.36L262 117.86H262V118.36ZM262 119.8L262 119.3H262V119.8ZM262 121.24L262 120.74H262V121.24ZM262 122.68L262 122.18H262V122.68ZM262 124.12L262 123.62H262V124.12ZM262 125.56L262 125.06H262V125.56ZM262 127L262 126.5H262V127ZM262 128.44L262 127.94H262V128.44ZM262 129.88L262 129.38H262V129.88ZM262 131.32L262 130.82H262V131.32ZM262 132.76L262 132.26H262V132.76ZM262 134.2L262 133.7H262V134.2ZM262 135.64L262 135.14H262V135.64ZM262 137.08L262 136.58H262V137.08ZM262 138.52L262 138.02H262V138.52ZM262 6.26006C259.239 6.26006 256.966 3.92414 256.966 1.00006H255.966C255.966 4.4383 258.649 7.26006 262 7.26006V6.26006ZM267.026 1.0001C267.026 3.9247 264.756 6.26009 262 6.26006L262 7.26006C265.347 7.2601 268.026 4.43745 268.026 1.0001H267.026ZM377.036 0.500092L267.526 0.500102L267.526 1.5001L377.036 1.50009L377.036 0.500092ZM383.062 6.76009C383.062 3.32276 380.383 0.500092 377.036 0.500092L377.036 1.50009C379.792 1.50009 382.062 3.8355 382.062 6.76009H383.062ZM383.062 12.5201V6.76009H382.062V12.5201H383.062ZM380.299 15.4001C380.299 14.066 381.331 13.0201 382.562 13.0201V12.0201C380.74 12.0201 379.299 13.5532 379.299 15.4001H380.299ZM382.562 17.7801C381.331 17.7801 380.299 16.7342 380.299 15.4001H379.299C379.299 17.2469 380.74 18.7801 382.562 18.7801V17.7801ZM383.062 24.0401V18.2801H382.062V24.0401H383.062ZM380.299 26.9201C380.299 25.586 381.331 24.5401 382.562 24.5401V23.5401C380.74 23.5401 379.299 25.0732 379.299 26.9201H380.299ZM382.562 29.3001C381.331 29.3001 380.299 28.2542 380.299 26.9201H379.299C379.299 28.7669 380.74 30.3001 382.562 30.3001V29.3001ZM383.062 35.5601V29.8001H382.062V35.5601H383.062ZM380.299 38.4401C380.299 37.106 381.331 36.0601 382.562 36.0601V35.0601C380.74 35.0601 379.299 36.5932 379.299 38.4401H380.299ZM382.562 40.8201C381.331 40.8201 380.299 39.7742 380.299 38.4401H379.299C379.299 40.2869 380.74 41.8201 382.562 41.8201V40.8201ZM383.062 47.0801V41.3201H382.062V47.0801H383.062ZM380.299 49.9601C380.299 48.6259 381.331 47.5801 382.562 47.5801V46.5801C380.74 46.5801 379.299 48.1132 379.299 49.9601H380.299ZM382.562 52.3401C381.331 52.3401 380.299 51.2942 380.299 49.9601H379.299C379.299 51.8069 380.74 53.3401 382.562 53.3401V52.3401ZM383.062 61.4801V52.8401H382.062V61.4801H383.062ZM372.01 73C372.01 66.8938 376.754 61.9801 382.562 61.9801V60.9801C376.163 60.9801 371.01 66.381 371.01 73H372.01ZM382.562 84.02C376.754 84.02 372.01 79.106 372.01 73H371.01C371.01 79.6188 376.163 85.02 382.562 85.02L382.562 84.02ZM383.062 93.16V84.52H382.062V93.16H383.062ZM380.299 96.04C380.299 94.7059 381.331 93.66 382.562 93.66V92.66C380.74 92.66 379.299 94.1931 379.299 96.04H380.299ZM382.562 98.42C381.331 98.42 380.299 97.3742 380.299 96.04H379.299C379.299 97.887 380.74 99.42 382.562 99.42V98.42ZM383.062 104.68V98.92H382.062V104.68H383.062ZM380.299 107.56C380.299 106.226 381.331 105.18 382.562 105.18V104.18C380.74 104.18 379.299 105.713 379.299 107.56H380.299ZM382.562 109.94C381.331 109.94 380.299 108.894 380.299 107.56H379.299C379.299 109.407 380.74 110.94 382.562 110.94L382.562 109.94ZM383.062 116.2V110.44H382.062V116.2H383.062ZM380.299 119.08C380.299 117.746 381.331 116.7 382.562 116.7V115.7C380.74 115.7 379.299 117.233 379.299 119.08H380.299ZM382.562 121.46C381.331 121.46 380.299 120.414 380.299 119.08H379.299C379.299 120.927 380.74 122.46 382.562 122.46V121.46ZM383.062 127.72V121.96H382.062V127.72H383.062ZM380.299 130.6C380.299 129.266 381.331 128.22 382.562 128.22V127.22C380.74 127.22 379.299 128.753 379.299 130.6H380.299ZM382.562 132.98C381.331 132.98 380.299 131.934 380.299 130.6H379.299C379.299 132.447 380.74 133.98 382.562 133.98V132.98ZM383.062 139.24V133.48H382.062V139.24H383.062ZM377.036 145.5C380.383 145.5 383.062 142.678 383.062 139.24H382.062C382.062 142.165 379.792 144.5 377.036 144.5V145.5ZM267.526 145.5L377.036 145.5L377.036 144.5L267.526 144.5L267.526 145.5ZM262 139.74C264.756 139.74 267.026 142.075 267.026 145H268.026C268.026 141.562 265.347 138.74 262 138.74L262 139.74ZM256.966 145C256.966 142.076 259.239 139.74 262 139.74V138.74C258.649 138.74 255.966 141.562 255.966 145H256.966ZM6.53379 145.5H256.466V144.5H6.53379V145.5ZM0.5 139.24C0.5 142.678 3.18272 145.5 6.53379 145.5V144.5C3.77241 144.5 1.5 142.164 1.5 139.24H0.5ZM0.5 133.48V139.24H1.5V133.48H0.5ZM3.26689 130.6C3.26689 131.933 2.23327 132.98 1 132.98V133.98C2.82296 133.98 4.26689 132.448 4.26689 130.6H3.26689ZM1 128.22C2.23327 128.22 3.26689 129.267 3.26689 130.6H4.26689C4.26689 128.752 2.82296 127.22 1 127.22V128.22ZM0.5 121.96V127.72H1.5V121.96H0.5ZM3.26689 119.08C3.26689 120.413 2.23327 121.46 1 121.46V122.46C2.82296 122.46 4.26689 120.928 4.26689 119.08H3.26689ZM1 116.7C2.23327 116.7 3.26689 117.747 3.26689 119.08H4.26689C4.26689 117.232 2.82296 115.7 1 115.7V116.7ZM0.5 110.44V116.2H1.5V110.44H0.5ZM3.26689 107.56C3.26689 108.893 2.23327 109.94 1 109.94V110.94C2.82296 110.94 4.26689 109.408 4.26689 107.56H3.26689ZM1 105.18C2.23327 105.18 3.26689 106.227 3.26689 107.56H4.26689C4.26689 105.712 2.82296 104.18 1 104.18V105.18ZM0.5 98.92V104.68H1.5V98.92H0.5ZM3.26689 96.04C3.26689 97.3734 2.23327 98.42 1 98.42V99.42C2.82296 99.42 4.26689 97.8875 4.26689 96.04H3.26689ZM1 93.66C2.23327 93.66 3.26689 94.7066 3.26689 96.04H4.26689C4.26689 94.1924 2.82296 92.66 1 92.66V93.66ZM0.5 84.52V93.16H1.5V84.52H0.5ZM11.5676 73C11.5676 79.1056 6.81763 84.02 1 84.02V85.02C7.40728 85.02 12.5676 79.6197 12.5676 73H11.5676ZM1 61.98C6.81762 61.98 11.5676 66.8947 11.5676 73H12.5676C12.5676 66.3806 7.40729 60.98 1 60.98V61.98ZM0.5 52.84V61.48H1.5V52.84H0.5ZM3.26689 49.96C3.26689 51.2935 2.23328 52.34 1 52.34V53.34C2.82295 53.34 4.26689 51.8076 4.26689 49.96H3.26689ZM1 47.58C2.23328 47.58 3.26689 48.6265 3.26689 49.96H4.26689C4.26689 48.1124 2.82295 46.58 1 46.58V47.58ZM0.5 41.32V47.08H1.5V41.32H0.5ZM3.26689 38.44C3.26689 39.7735 2.23328 40.82 1 40.82V41.82C2.82295 41.82 4.26689 40.2876 4.26689 38.44H3.26689ZM1 36.06C2.23328 36.06 3.26689 37.1065 3.26689 38.44H4.26689C4.26689 36.5924 2.82295 35.06 1 35.06V36.06ZM0.5 29.8V35.56H1.5V29.8H0.5ZM3.26689 26.92C3.26689 28.2535 2.23328 29.3 1 29.3V30.3C2.82295 30.3 4.26689 28.7677 4.26689 26.92H3.26689ZM1 24.54C2.23328 24.54 3.26689 25.5866 3.26689 26.92H4.26689C4.26689 25.0724 2.82295 23.54 1 23.54V24.54ZM0.5 18.28V24.04H1.5V18.28H0.5ZM3.26689 15.4001C3.26689 16.7335 2.23328 17.78 1 17.78V18.78C2.82295 18.78 4.26689 17.2477 4.26689 15.4001H3.26689ZM1 13.0201C2.23328 13.0201 3.26689 14.0666 3.26689 15.4001H4.26689C4.26689 13.5524 2.82295 12.0201 1 12.0201V13.0201ZM0.5 6.76006V12.5201H1.5V6.76006H0.5ZM6.53379 0.500061C3.18272 0.500061 0.5 3.32183 0.5 6.76006H1.5C1.5 3.83598 3.77239 1.50006 6.53379 1.50006V0.500061ZM256.466 0.500061H6.53379V1.50006H256.466V0.500061ZM261.808 8.20006C261.808 8.05957 261.913 7.98006 262 7.98006V6.98006C261.323 6.98006 260.808 7.54526 260.808 8.20006H261.808ZM262 8.42005C261.913 8.42005 261.808 8.34055 261.808 8.20006H260.808C260.808 8.85487 261.323 9.42005 262 9.42005V8.42005ZM262.191 8.2001C262.191 8.34119 262.086 8.42007 262 8.42005L262 9.42005C262.677 9.42014 263.191 8.8539 263.191 8.2001H262.191ZM262 7.98006C262.086 7.98007 262.191 8.05904 262.191 8.2001H263.191C263.191 7.54627 262.677 6.98013 262 6.98006L262 7.98006ZM261.808 11.0801C261.808 10.9396 261.913 10.8601 262 10.8601V9.86005C261.323 9.86005 260.808 10.4252 260.808 11.0801H261.808ZM262 11.3001C261.913 11.3001 261.808 11.2205 261.808 11.0801H260.808C260.808 11.7349 261.323 12.3001 262 12.3001V11.3001ZM262.191 11.0801C262.191 11.2212 262.086 11.3001 262 11.3001L262 12.3001C262.677 12.3001 263.191 11.7339 263.191 11.0801H262.191ZM262 10.8601C262.086 10.8601 262.191 10.9391 262.191 11.0801H263.191C263.191 10.4263 262.677 9.86014 262 9.86005L262 10.8601ZM261.808 13.9601C261.808 13.8196 261.913 13.7401 262 13.7401V12.7401C261.323 12.7401 260.808 13.3052 260.808 13.9601H261.808ZM262 14.18C261.913 14.18 261.808 14.1005 261.808 13.9601H260.808C260.808 14.6149 261.323 15.18 262 15.18V14.18ZM262.191 13.9601C262.191 14.1012 262.086 14.1801 262 14.18L262 15.18C262.677 15.1801 263.191 14.6139 263.191 13.9601H262.191ZM262 13.7401C262.086 13.7401 262.191 13.819 262.191 13.9601H263.191C263.191 13.3063 262.677 12.7401 262 12.7401L262 13.7401ZM261.808 16.84C261.808 16.6996 261.913 16.62 262 16.62V15.62C261.323 15.62 260.808 16.1852 260.808 16.84H261.808ZM262 17.06C261.913 17.06 261.808 16.9805 261.808 16.84H260.808C260.808 17.4949 261.323 18.06 262 18.06V17.06ZM262.191 16.8401C262.191 16.9812 262.086 17.0601 262 17.06L262 18.06C262.677 18.0601 263.191 17.4939 263.191 16.8401H262.191ZM262 16.62C262.086 16.6201 262.191 16.699 262.191 16.8401H263.191C263.191 16.1863 262.677 15.6201 262 15.62L262 16.62ZM261.808 19.72C261.808 19.5796 261.913 19.5 262 19.5V18.5C261.323 18.5 260.808 19.0652 260.808 19.72H261.808ZM262 19.94C261.913 19.94 261.808 19.8605 261.808 19.72H260.808C260.808 20.3749 261.323 20.94 262 20.94V19.94ZM262.191 19.7201C262.191 19.8612 262.086 19.9401 262 19.94L262 20.94C262.677 20.9401 263.191 20.3739 263.191 19.7201H262.191ZM262 19.5C262.086 19.5001 262.191 19.579 262.191 19.7201H263.191C263.191 19.0663 262.677 18.5001 262 18.5L262 19.5ZM261.808 22.6C261.808 22.4595 261.913 22.38 262 22.38V21.38C261.323 21.38 260.808 21.9452 260.808 22.6H261.808ZM262 22.82C261.913 22.82 261.808 22.7405 261.808 22.6H260.808C260.808 23.2549 261.323 23.82 262 23.82V22.82ZM262.191 22.6001C262.191 22.7412 262.086 22.8201 262 22.82L262 23.82C262.677 23.8201 263.191 23.2539 263.191 22.6001H262.191ZM262 22.38C262.086 22.3801 262.191 22.459 262.191 22.6001H263.191C263.191 21.9463 262.677 21.3801 262 21.38L262 22.38ZM261.808 25.48C261.808 25.3395 261.913 25.26 262 25.26V24.26C261.323 24.26 260.808 24.8252 260.808 25.48H261.808ZM262 25.7C261.913 25.7 261.808 25.6205 261.808 25.48H260.808C260.808 26.1349 261.323 26.7 262 26.7V25.7ZM262.191 25.4801C262.191 25.6212 262.086 25.7001 262 25.7L262 26.7C262.677 26.7001 263.191 26.1339 263.191 25.4801H262.191ZM262 25.26C262.086 25.26 262.191 25.339 262.191 25.4801H263.191C263.191 24.8263 262.677 24.2601 262 24.26L262 25.26ZM261.808 28.36C261.808 28.2195 261.913 28.14 262 28.14V27.14C261.323 27.14 260.808 27.7052 260.808 28.36H261.808ZM262 28.58C261.913 28.58 261.808 28.5005 261.808 28.36H260.808C260.808 29.0149 261.323 29.58 262 29.58V28.58ZM262.191 28.3601C262.191 28.5012 262.086 28.58 262 28.58L262 29.58C262.677 29.5801 263.191 29.0139 263.191 28.3601H262.191ZM262 28.14C262.086 28.1401 262.191 28.219 262.191 28.3601H263.191C263.191 27.7063 262.677 27.1401 262 27.14L262 28.14ZM261.808 31.24C261.808 31.0995 261.913 31.02 262 31.02V30.02C261.323 30.02 260.808 30.5852 260.808 31.24H261.808ZM262 31.46C261.913 31.46 261.808 31.3805 261.808 31.24H260.808C260.808 31.8949 261.323 32.46 262 32.46V31.46ZM262.191 31.2401C262.191 31.3812 262.086 31.46 262 31.46L262 32.46C262.677 32.4601 263.191 31.8939 263.191 31.2401H262.191ZM262 31.02C262.086 31.02 262.191 31.099 262.191 31.2401H263.191C263.191 30.5863 262.677 30.0201 262 30.02L262 31.02ZM261.808 34.12C261.808 33.9795 261.913 33.9 262 33.9V32.9C261.323 32.9 260.808 33.4652 260.808 34.12H261.808ZM262 34.34C261.913 34.34 261.808 34.2605 261.808 34.12H260.808C260.808 34.7749 261.323 35.34 262 35.34V34.34ZM262.191 34.1201C262.191 34.2612 262.086 34.34 262 34.34L262 35.34C262.677 35.3401 263.191 34.7739 263.191 34.1201H262.191ZM262 33.9C262.086 33.9 262.191 33.979 262.191 34.1201H263.191C263.191 33.4663 262.677 32.9001 262 32.9L262 33.9ZM261.808 37C261.808 36.8595 261.913 36.78 262 36.78V35.78C261.323 35.78 260.808 36.3452 260.808 37H261.808ZM262 37.22C261.913 37.22 261.808 37.1405 261.808 37H260.808C260.808 37.6549 261.323 38.22 262 38.22V37.22ZM262.191 37.0001C262.191 37.1412 262.086 37.22 262 37.22L262 38.22C262.677 38.2201 263.191 37.6539 263.191 37.0001H262.191ZM262 36.78C262.086 36.78 262.191 36.859 262.191 37.0001H263.191C263.191 36.3463 262.677 35.7801 262 35.78L262 36.78ZM261.808 39.88C261.808 39.7395 261.913 39.66 262 39.66V38.66C261.323 38.66 260.808 39.2252 260.808 39.88H261.808ZM262 40.1C261.913 40.1 261.808 40.0205 261.808 39.88H260.808C260.808 40.5348 261.323 41.1 262 41.1V40.1ZM262.191 39.8801C262.191 40.0212 262.086 40.1 262 40.1L262 41.1C262.677 41.1001 263.191 40.5339 263.191 39.8801H262.191ZM262 39.66C262.086 39.66 262.191 39.739 262.191 39.8801H263.191C263.191 39.2263 262.677 38.6601 262 38.66L262 39.66ZM261.808 42.76C261.808 42.6195 261.913 42.54 262 42.54V41.54C261.323 41.54 260.808 42.1052 260.808 42.76H261.808ZM262 42.98C261.913 42.98 261.808 42.9005 261.808 42.76H260.808C260.808 43.4148 261.323 43.98 262 43.98V42.98ZM262.191 42.7601C262.191 42.9012 262.086 42.98 262 42.98L262 43.98C262.677 43.9801 263.191 43.4139 263.191 42.7601H262.191ZM262 42.54C262.086 42.54 262.191 42.619 262.191 42.7601H263.191C263.191 42.1062 262.677 41.5401 262 41.54L262 42.54ZM261.808 45.64C261.808 45.4995 261.913 45.42 262 45.42V44.42C261.323 44.42 260.808 44.9852 260.808 45.64H261.808ZM262 45.86C261.913 45.86 261.808 45.7805 261.808 45.64H260.808C260.808 46.2948 261.323 46.86 262 46.86V45.86ZM262.191 45.6401C262.191 45.7812 262.086 45.86 262 45.86L262 46.86C262.677 46.8601 263.191 46.2939 263.191 45.6401H262.191ZM262 45.42C262.086 45.42 262.191 45.499 262.191 45.6401H263.191C263.191 44.9863 262.677 44.4201 262 44.42L262 45.42ZM261.808 48.52C261.808 48.3795 261.913 48.3 262 48.3V47.3C261.323 47.3 260.808 47.8652 260.808 48.52H261.808ZM262 48.74C261.913 48.74 261.808 48.6605 261.808 48.52H260.808C260.808 49.1748 261.323 49.74 262 49.74V48.74ZM262.191 48.5201C262.191 48.6612 262.086 48.74 262 48.74L262 49.74C262.677 49.7401 263.191 49.1739 263.191 48.5201H262.191ZM262 48.3C262.086 48.3 262.191 48.379 262.191 48.5201H263.191C263.191 47.8662 262.677 47.3001 262 47.3L262 48.3ZM261.808 51.4C261.808 51.2595 261.913 51.18 262 51.18V50.18C261.323 50.18 260.808 50.7452 260.808 51.4H261.808ZM262 51.62C261.913 51.62 261.808 51.5405 261.808 51.4H260.808C260.808 52.0548 261.323 52.62 262 52.62V51.62ZM262.191 51.4001C262.191 51.5412 262.086 51.62 262 51.62L262 52.62C262.677 52.6201 263.191 52.0539 263.191 51.4001H262.191ZM262 51.18C262.086 51.18 262.191 51.259 262.191 51.4001H263.191C263.191 50.7463 262.677 50.1801 262 50.18L262 51.18ZM261.808 54.28C261.808 54.1395 261.913 54.06 262 54.06V53.06C261.323 53.06 260.808 53.6252 260.808 54.28H261.808ZM262 54.5C261.913 54.5 261.808 54.4205 261.808 54.28H260.808C260.808 54.9348 261.323 55.5 262 55.5V54.5ZM262.191 54.2801C262.191 54.4212 262.086 54.5 262 54.5L262 55.5C262.677 55.5001 263.191 54.9338 263.191 54.2801H262.191ZM262 54.06C262.086 54.06 262.191 54.139 262.191 54.2801H263.191C263.191 53.6262 262.677 53.0601 262 53.06L262 54.06ZM261.808 57.16C261.808 57.0195 261.913 56.94 262 56.94V55.94C261.323 55.94 260.808 56.5052 260.808 57.16H261.808ZM262 57.38C261.913 57.38 261.808 57.3005 261.808 57.16H260.808C260.808 57.8148 261.323 58.38 262 58.38V57.38ZM262.191 57.1601C262.191 57.3012 262.086 57.38 262 57.38L262 58.38C262.677 58.3801 263.191 57.8139 263.191 57.1601H262.191ZM262 56.94C262.086 56.94 262.191 57.019 262.191 57.1601H263.191C263.191 56.5063 262.677 55.9401 262 55.94L262 56.94ZM261.808 60.04C261.808 59.8995 261.913 59.82 262 59.82V58.82C261.323 58.82 260.808 59.3852 260.808 60.04H261.808ZM262 60.26C261.913 60.26 261.808 60.1805 261.808 60.04H260.808C260.808 60.6948 261.323 61.26 262 61.26V60.26ZM262.191 60.0401C262.191 60.1812 262.086 60.26 262 60.26L262 61.26C262.677 61.2601 263.191 60.6938 263.191 60.0401H262.191ZM262 59.82C262.086 59.82 262.191 59.899 262.191 60.0401H263.191C263.191 59.3862 262.677 58.8201 262 58.82L262 59.82ZM261.808 62.92C261.808 62.7795 261.913 62.7 262 62.7V61.7C261.323 61.7 260.808 62.2652 260.808 62.92H261.808ZM262 63.14C261.913 63.14 261.808 63.0605 261.808 62.92H260.808C260.808 63.5748 261.323 64.14 262 64.14V63.14ZM262.191 62.9201C262.191 63.0612 262.086 63.14 262 63.14L262 64.14C262.677 64.1401 263.191 63.5738 263.191 62.9201H262.191ZM262 62.7C262.086 62.7 262.191 62.779 262.191 62.9201H263.191C263.191 62.2663 262.677 61.7001 262 61.7L262 62.7ZM261.808 65.8C261.808 65.6595 261.913 65.58 262 65.58V64.58C261.323 64.58 260.808 65.1452 260.808 65.8H261.808ZM262 66.02C261.913 66.02 261.808 65.9405 261.808 65.8H260.808C260.808 66.4548 261.323 67.02 262 67.02V66.02ZM262.191 65.8001C262.191 65.9412 262.086 66.02 262 66.02L262 67.02C262.677 67.0201 263.191 66.4538 263.191 65.8001H262.191ZM262 65.58C262.086 65.58 262.191 65.659 262.191 65.8001H263.191C263.191 65.1462 262.677 64.5801 262 64.58L262 65.58ZM261.808 68.68C261.808 68.5395 261.913 68.46 262 68.46V67.46C261.323 67.46 260.808 68.0252 260.808 68.68H261.808ZM262 68.9C261.913 68.9 261.808 68.8205 261.808 68.68H260.808C260.808 69.3348 261.323 69.9 262 69.9V68.9ZM262.191 68.6801C262.191 68.8212 262.086 68.9 262 68.9L262 69.9C262.677 69.9001 263.191 69.3338 263.191 68.6801H262.191ZM262 68.46C262.086 68.46 262.191 68.539 262.191 68.6801H263.191C263.191 68.0262 262.677 67.4601 262 67.46L262 68.46ZM261.808 71.56C261.808 71.4195 261.913 71.34 262 71.34V70.34C261.323 70.34 260.808 70.9052 260.808 71.56H261.808ZM262 71.78C261.913 71.78 261.808 71.7005 261.808 71.56H260.808C260.808 72.2148 261.323 72.78 262 72.78V71.78ZM262.191 71.5601C262.191 71.7011 262.086 71.78 262 71.78L262 72.78C262.677 72.7801 263.191 72.2138 263.191 71.5601H262.191ZM262 71.34C262.086 71.34 262.191 71.419 262.191 71.5601H263.191C263.191 70.9062 262.677 70.3401 262 70.34L262 71.34ZM261.808 74.44C261.808 74.2996 261.913 74.22 262 74.22V73.22C261.323 73.22 260.808 73.7855 260.808 74.44H261.808ZM262 74.66C261.913 74.66 261.808 74.5804 261.808 74.44H260.808C260.808 75.0945 261.323 75.66 262 75.66V74.66ZM262.191 74.4401C262.191 74.5813 262.086 74.66 262 74.66L262 75.66C262.677 75.6601 263.191 75.0941 263.191 74.4401H262.191ZM262 74.22C262.086 74.22 262.191 74.2989 262.191 74.4401H263.191C263.191 73.7859 262.677 73.2201 262 73.22L262 74.22ZM261.808 77.32C261.808 77.1796 261.913 77.1 262 77.1V76.1C261.323 76.1 260.808 76.6655 260.808 77.32H261.808ZM262 77.54C261.913 77.54 261.808 77.4604 261.808 77.32H260.808C260.808 77.9745 261.323 78.54 262 78.54V77.54ZM262.191 77.3201C262.191 77.4613 262.086 77.54 262 77.54L262 78.54C262.677 78.5401 263.191 77.9742 263.191 77.3201H262.191ZM262 77.1C262.086 77.1 262.191 77.1789 262.191 77.3201H263.191C263.191 76.6659 262.677 76.1001 262 76.1L262 77.1ZM261.808 80.2C261.808 80.0596 261.913 79.98 262 79.98V78.98C261.323 78.98 260.808 79.5455 260.808 80.2H261.808ZM262 80.42C261.913 80.42 261.808 80.3404 261.808 80.2H260.808C260.808 80.8545 261.323 81.42 262 81.42V80.42ZM262.191 80.2001C262.191 80.3413 262.086 80.42 262 80.42L262 81.42C262.677 81.4201 263.191 80.8541 263.191 80.2001H262.191ZM262 79.98C262.086 79.98 262.191 80.0589 262.191 80.2001H263.191C263.191 79.5459 262.677 78.9801 262 78.98L262 79.98ZM261.808 83.08C261.808 82.9396 261.913 82.86 262 82.86V81.86C261.323 81.86 260.808 82.4255 260.808 83.08H261.808ZM262 83.3C261.913 83.3 261.808 83.2204 261.808 83.08H260.808C260.808 83.7345 261.323 84.3 262 84.3V83.3ZM262.191 83.08C262.191 83.2213 262.086 83.3 262 83.3L262 84.3C262.677 84.3001 263.191 83.7341 263.191 83.08H262.191ZM262 82.86C262.086 82.86 262.191 82.9389 262.191 83.08H263.191C263.191 82.4259 262.677 81.8601 262 81.86L262 82.86ZM261.808 85.96C261.808 85.8196 261.913 85.74 262 85.74V84.74C261.323 84.74 260.808 85.3055 260.808 85.96H261.808ZM262 86.18C261.913 86.18 261.808 86.1004 261.808 85.96H260.808C260.808 86.6145 261.323 87.18 262 87.18V86.18ZM262.191 85.96C262.191 86.1013 262.086 86.18 262 86.18L262 87.18C262.677 87.1801 263.191 86.6141 263.191 85.96H262.191ZM262 85.74C262.086 85.74 262.191 85.8189 262.191 85.96H263.191C263.191 85.3059 262.677 84.7401 262 84.74L262 85.74ZM261.808 88.84C261.808 88.6996 261.913 88.62 262 88.62V87.62C261.323 87.62 260.808 88.1855 260.808 88.84H261.808ZM262 89.06C261.913 89.06 261.808 88.9804 261.808 88.84H260.808C260.808 89.4945 261.323 90.06 262 90.06V89.06ZM262.191 88.84C262.191 88.9813 262.086 89.06 262 89.06L262 90.06C262.677 90.0601 263.191 89.4941 263.191 88.84H262.191ZM262 88.62C262.086 88.62 262.191 88.6989 262.191 88.84H263.191C263.191 88.1859 262.677 87.6201 262 87.62L262 88.62ZM261.808 91.72C261.808 91.5796 261.913 91.5 262 91.5V90.5C261.323 90.5 260.808 91.0655 260.808 91.72H261.808ZM262 91.94C261.913 91.94 261.808 91.8604 261.808 91.72H260.808C260.808 92.3745 261.323 92.94 262 92.94V91.94ZM262.191 91.72C262.191 91.8613 262.086 91.94 262 91.94L262 92.94C262.677 92.9401 263.191 92.3741 263.191 91.72H262.191ZM262 91.5C262.086 91.5 262.191 91.5789 262.191 91.72H263.191C263.191 91.0659 262.677 90.5001 262 90.5L262 91.5ZM261.808 94.6C261.808 94.4596 261.913 94.38 262 94.38V93.38C261.323 93.38 260.808 93.9455 260.808 94.6H261.808ZM262 94.82C261.913 94.82 261.808 94.7404 261.808 94.6H260.808C260.808 95.2545 261.323 95.82 262 95.82V94.82ZM262.191 94.6C262.191 94.7413 262.086 94.82 262 94.82L262 95.82C262.677 95.8201 263.191 95.2541 263.191 94.6H262.191ZM262 94.38C262.086 94.38 262.191 94.4589 262.191 94.6H263.191C263.191 93.9459 262.677 93.3801 262 93.38L262 94.38ZM261.808 97.48C261.808 97.3396 261.913 97.26 262 97.26V96.26C261.323 96.26 260.808 96.8255 260.808 97.48H261.808ZM262 97.7C261.913 97.7 261.808 97.6204 261.808 97.48H260.808C260.808 98.1345 261.323 98.7 262 98.7V97.7ZM262.191 97.48C262.191 97.6213 262.086 97.7 262 97.7L262 98.7C262.677 98.7001 263.191 98.1341 263.191 97.48H262.191ZM262 97.26C262.086 97.26 262.191 97.3389 262.191 97.48H263.191C263.191 96.8259 262.677 96.2601 262 96.26L262 97.26ZM261.808 100.36C261.808 100.22 261.913 100.14 262 100.14V99.14C261.323 99.14 260.808 99.7055 260.808 100.36H261.808ZM262 100.58C261.913 100.58 261.808 100.5 261.808 100.36H260.808C260.808 101.014 261.323 101.58 262 101.58V100.58ZM262.191 100.36C262.191 100.501 262.086 100.58 262 100.58L262 101.58C262.677 101.58 263.191 101.014 263.191 100.36H262.191ZM262 100.14C262.086 100.14 262.191 100.219 262.191 100.36H263.191C263.191 99.7059 262.677 99.1401 262 99.14L262 100.14ZM261.808 103.24C261.808 103.1 261.913 103.02 262 103.02V102.02C261.323 102.02 260.808 102.585 260.808 103.24H261.808ZM262 103.46C261.913 103.46 261.808 103.38 261.808 103.24H260.808C260.808 103.894 261.323 104.46 262 104.46V103.46ZM262.191 103.24C262.191 103.381 262.086 103.46 262 103.46L262 104.46C262.677 104.46 263.191 103.894 263.191 103.24H262.191ZM262 103.02C262.086 103.02 262.191 103.099 262.191 103.24H263.191C263.191 102.586 262.677 102.02 262 102.02L262 103.02ZM261.808 106.12C261.808 105.98 261.913 105.9 262 105.9V104.9C261.323 104.9 260.808 105.465 260.808 106.12H261.808ZM262 106.34C261.913 106.34 261.808 106.26 261.808 106.12H260.808C260.808 106.774 261.323 107.34 262 107.34V106.34ZM262.191 106.12C262.191 106.261 262.086 106.34 262 106.34L262 107.34C262.677 107.34 263.191 106.774 263.191 106.12H262.191ZM262 105.9C262.086 105.9 262.191 105.979 262.191 106.12H263.191C263.191 105.466 262.677 104.9 262 104.9L262 105.9ZM261.808 109C261.808 108.86 261.913 108.78 262 108.78V107.78C261.323 107.78 260.808 108.345 260.808 109H261.808ZM262 109.22C261.913 109.22 261.808 109.14 261.808 109H260.808C260.808 109.654 261.323 110.22 262 110.22V109.22ZM262.191 109C262.191 109.141 262.086 109.22 262 109.22L262 110.22C262.677 110.22 263.191 109.654 263.191 109H262.191ZM262 108.78C262.086 108.78 262.191 108.859 262.191 109H263.191C263.191 108.346 262.677 107.78 262 107.78L262 108.78ZM261.808 111.88C261.808 111.74 261.913 111.66 262 111.66V110.66C261.323 110.66 260.808 111.225 260.808 111.88H261.808ZM262 112.1C261.913 112.1 261.808 112.02 261.808 111.88H260.808C260.808 112.534 261.323 113.1 262 113.1V112.1ZM262.191 111.88C262.191 112.021 262.086 112.1 262 112.1L262 113.1C262.677 113.1 263.191 112.534 263.191 111.88H262.191ZM262 111.66C262.086 111.66 262.191 111.739 262.191 111.88H263.191C263.191 111.226 262.677 110.66 262 110.66L262 111.66ZM261.808 114.76C261.808 114.62 261.913 114.54 262 114.54V113.54C261.323 113.54 260.808 114.105 260.808 114.76H261.808ZM262 114.98C261.913 114.98 261.808 114.9 261.808 114.76H260.808C260.808 115.414 261.323 115.98 262 115.98V114.98ZM262.191 114.76C262.191 114.901 262.086 114.98 262 114.98L262 115.98C262.677 115.98 263.191 115.414 263.191 114.76H262.191ZM262 114.54C262.086 114.54 262.191 114.619 262.191 114.76H263.191C263.191 114.106 262.677 113.54 262 113.54L262 114.54ZM261.808 117.64C261.808 117.5 261.913 117.42 262 117.42V116.42C261.323 116.42 260.808 116.985 260.808 117.64H261.808ZM262 117.86C261.913 117.86 261.808 117.78 261.808 117.64H260.808C260.808 118.294 261.323 118.86 262 118.86V117.86ZM262.191 117.64C262.191 117.781 262.086 117.86 262 117.86L262 118.86C262.677 118.86 263.191 118.294 263.191 117.64H262.191ZM262 117.42C262.086 117.42 262.191 117.499 262.191 117.64H263.191C263.191 116.986 262.677 116.42 262 116.42L262 117.42ZM261.808 120.52C261.808 120.38 261.913 120.3 262 120.3V119.3C261.323 119.3 260.808 119.865 260.808 120.52H261.808ZM262 120.74C261.913 120.74 261.808 120.66 261.808 120.52H260.808C260.808 121.174 261.323 121.74 262 121.74V120.74ZM262.191 120.52C262.191 120.661 262.086 120.74 262 120.74L262 121.74C262.677 121.74 263.191 121.174 263.191 120.52H262.191ZM262 120.3C262.086 120.3 262.191 120.379 262.191 120.52H263.191C263.191 119.866 262.677 119.3 262 119.3L262 120.3ZM261.808 123.4C261.808 123.26 261.913 123.18 262 123.18V122.18C261.323 122.18 260.808 122.745 260.808 123.4H261.808ZM262 123.62C261.913 123.62 261.808 123.54 261.808 123.4H260.808C260.808 124.054 261.323 124.62 262 124.62V123.62ZM262.191 123.4C262.191 123.541 262.086 123.62 262 123.62L262 124.62C262.677 124.62 263.191 124.054 263.191 123.4H262.191ZM262 123.18C262.086 123.18 262.191 123.259 262.191 123.4H263.191C263.191 122.746 262.677 122.18 262 122.18L262 123.18ZM261.808 126.28C261.808 126.14 261.913 126.06 262 126.06V125.06C261.323 125.06 260.808 125.625 260.808 126.28H261.808ZM262 126.5C261.913 126.5 261.808 126.42 261.808 126.28H260.808C260.808 126.934 261.323 127.5 262 127.5V126.5ZM262.191 126.28C262.191 126.421 262.086 126.5 262 126.5L262 127.5C262.677 127.5 263.191 126.934 263.191 126.28H262.191ZM262 126.06C262.086 126.06 262.191 126.139 262.191 126.28H263.191C263.191 125.626 262.677 125.06 262 125.06L262 126.06ZM261.808 129.16C261.808 129.02 261.913 128.94 262 128.94V127.94C261.323 127.94 260.808 128.505 260.808 129.16H261.808ZM262 129.38C261.913 129.38 261.808 129.3 261.808 129.16H260.808C260.808 129.814 261.323 130.38 262 130.38V129.38ZM262.191 129.16C262.191 129.301 262.086 129.38 262 129.38L262 130.38C262.677 130.38 263.191 129.814 263.191 129.16H262.191ZM262 128.94C262.086 128.94 262.191 129.019 262.191 129.16H263.191C263.191 128.506 262.677 127.94 262 127.94L262 128.94ZM261.808 132.04C261.808 131.9 261.913 131.82 262 131.82V130.82C261.323 130.82 260.808 131.385 260.808 132.04H261.808ZM262 132.26C261.913 132.26 261.808 132.18 261.808 132.04H260.808C260.808 132.694 261.323 133.26 262 133.26V132.26ZM262.191 132.04C262.191 132.181 262.086 132.26 262 132.26L262 133.26C262.677 133.26 263.191 132.694 263.191 132.04H262.191ZM262 131.82C262.086 131.82 262.191 131.899 262.191 132.04H263.191C263.191 131.386 262.677 130.82 262 130.82L262 131.82ZM261.808 134.92C261.808 134.78 261.913 134.7 262 134.7V133.7C261.323 133.7 260.808 134.265 260.808 134.92H261.808ZM262 135.14C261.913 135.14 261.808 135.06 261.808 134.92H260.808C260.808 135.574 261.323 136.14 262 136.14V135.14ZM262.191 134.92C262.191 135.061 262.086 135.14 262 135.14L262 136.14C262.677 136.14 263.191 135.574 263.191 134.92H262.191ZM262 134.7C262.086 134.7 262.191 134.779 262.191 134.92H263.191C263.191 134.266 262.677 133.7 262 133.7L262 134.7ZM261.808 137.8C261.808 137.66 261.913 137.58 262 137.58V136.58C261.323 136.58 260.808 137.145 260.808 137.8H261.808ZM262 138.02C261.913 138.02 261.808 137.94 261.808 137.8H260.808C260.808 138.454 261.323 139.02 262 139.02V138.02ZM262.191 137.8C262.191 137.941 262.086 138.02 262 138.02L262 139.02C262.677 139.02 263.191 138.454 263.191 137.8H262.191ZM262 137.58C262.086 137.58 262.191 137.659 262.191 137.8H263.191C263.191 137.146 262.677 136.58 262 136.58L262 137.58Z" fill="#E6F0F5"/>
</svg>
