<svg width="384" height="146" viewBox="0 0 384 146" fill="none" xmlns="http://www.w3.org/2000/svg">
    <path fill-rule="evenodd" clip-rule="evenodd" d="M256.466 1C256.466 4.18116 258.944 6.76 262 6.76C265.052 6.76003 267.526 4.181 267.526 1.00004L377.036 1.00003C380.088 1.00003 382.562 3.57906 382.562 6.76002V12.52C381.036 12.52 379.799 13.8095 379.799 15.4C379.799 16.9905 381.036 18.28 382.562 18.28V24.04C381.036 24.04 379.799 25.3295 379.799 26.92C379.799 28.5105 381.036 29.8 382.562 29.8V35.56C381.036 35.56 379.799 36.8495 379.799 38.44C379.799 40.0305 381.036 41.32 382.562 41.32V47.08C381.036 47.08 379.799 48.3695 379.799 49.96C379.799 51.5505 381.036 52.84 382.562 52.84V61.48C376.458 61.48 371.51 66.6374 371.51 73C371.51 79.3623 376.458 84.52 382.562 84.52V93.16C381.036 93.16 379.799 94.4494 379.799 96.04C379.799 97.6305 381.036 98.92 382.562 98.92V104.68C381.036 104.68 379.799 105.969 379.799 107.56C379.799 109.151 381.036 110.44 382.562 110.44V116.2C381.036 116.2 379.799 117.489 379.799 119.08C379.799 120.671 381.036 121.96 382.562 121.96V127.72C381.036 127.72 379.799 129.009 379.799 130.6C379.799 132.191 381.036 133.48 382.562 133.48V139.24C382.562 142.421 380.088 145 377.036 145L267.526 145C267.526 141.819 265.052 139.24 262 139.24C258.944 139.24 256.466 141.819 256.466 145H6.53379C3.47757 145 1 142.421 1 139.24V133.48C2.52811 133.48 3.76689 132.19 3.76689 130.6C3.76689 129.009 2.52811 127.72 1 127.72V121.96C2.52811 121.96 3.76689 120.67 3.76689 119.08C3.76689 117.489 2.52811 116.2 1 116.2V110.44C2.52811 110.44 3.76689 109.15 3.76689 107.56C3.76689 105.969 2.52811 104.68 1 104.68V98.9199C2.52811 98.9199 3.76689 97.6304 3.76689 96.0399C3.76689 94.4494 2.52811 93.1599 1 93.1599V84.5199C7.11245 84.5199 12.0676 79.3626 12.0676 72.9999C12.0676 66.6376 7.11245 61.4799 1 61.4799V52.84C2.52811 52.84 3.76689 51.5505 3.76689 49.96C3.76689 48.3694 2.52811 47.08 1 47.08V41.32C2.52811 41.32 3.76689 40.0305 3.76689 38.44C3.76689 36.8494 2.52811 35.56 1 35.56V29.8C2.52811 29.8 3.76689 28.5105 3.76689 26.92C3.76689 25.3294 2.52811 24.04 1 24.04V18.28C2.52811 18.28 3.76689 16.9905 3.76689 15.4C3.76689 13.8094 2.52811 12.52 1 12.52V6.76C1 3.57884 3.47756 1 6.53379 1H256.466ZM262 7.47999C261.618 7.47999 261.308 7.80235 261.308 8.19999C261.308 8.59765 261.618 8.91999 262 8.91999C262.381 8.92003 262.691 8.59748 262.691 8.20004C262.691 7.8026 262.381 7.48004 262 7.47999ZM262 10.36C261.618 10.36 261.308 10.6823 261.308 11.08C261.308 11.4776 261.618 11.8 262 11.8C262.381 11.8 262.691 11.4775 262.691 11.08C262.691 10.6826 262.381 10.36 262 10.36ZM262 13.24C261.618 13.24 261.308 13.5623 261.308 13.96C261.308 14.3576 261.618 14.68 262 14.68C262.381 14.68 262.691 14.3575 262.691 13.96C262.691 13.5626 262.381 13.24 262 13.24ZM262 16.12C261.618 16.12 261.308 16.4423 261.308 16.84C261.308 17.2376 261.618 17.56 262 17.56C262.381 17.56 262.691 17.2375 262.691 16.84C262.691 16.4426 262.381 16.12 262 16.12ZM262 19C261.618 19 261.308 19.3223 261.308 19.72C261.308 20.1176 261.618 20.44 262 20.44C262.381 20.44 262.691 20.1175 262.691 19.72C262.691 19.3226 262.381 19 262 19ZM262 21.88C261.618 21.88 261.308 22.2023 261.308 22.6C261.308 22.9976 261.618 23.32 262 23.32C262.381 23.32 262.691 22.9975 262.691 22.6C262.691 22.2026 262.381 21.88 262 21.88ZM262 24.76C261.618 24.76 261.308 25.0823 261.308 25.48C261.308 25.8776 261.618 26.2 262 26.2C262.381 26.2 262.691 25.8775 262.691 25.48C262.691 25.0826 262.381 24.76 262 24.76ZM262 27.64C261.618 27.64 261.308 27.9623 261.308 28.36C261.308 28.7576 261.618 29.08 262 29.08C262.381 29.08 262.691 28.7575 262.691 28.36C262.691 27.9626 262.381 27.64 262 27.64ZM262 30.52C261.618 30.52 261.308 30.8423 261.308 31.24C261.308 31.6376 261.618 31.96 262 31.96C262.381 31.96 262.691 31.6375 262.691 31.24C262.691 30.8426 262.381 30.52 262 30.52ZM262 33.4C261.618 33.4 261.308 33.7223 261.308 34.12C261.308 34.5176 261.618 34.84 262 34.84C262.381 34.84 262.691 34.5175 262.691 34.12C262.691 33.7226 262.381 33.4 262 33.4ZM262 36.28C261.618 36.28 261.308 36.6023 261.308 37C261.308 37.3976 261.618 37.72 262 37.72C262.381 37.72 262.691 37.3975 262.691 37C262.691 36.6026 262.381 36.28 262 36.28ZM262 39.16C261.618 39.16 261.308 39.4823 261.308 39.88C261.308 40.2776 261.618 40.6 262 40.6C262.381 40.6 262.691 40.2775 262.691 39.88C262.691 39.4826 262.381 39.16 262 39.16ZM262 42.04C261.618 42.04 261.308 42.3623 261.308 42.76C261.308 43.1576 261.618 43.48 262 43.48C262.381 43.48 262.691 43.1574 262.691 42.76C262.691 42.3626 262.381 42.04 262 42.04ZM262 44.92C261.618 44.92 261.308 45.2423 261.308 45.64C261.308 46.0376 261.618 46.36 262 46.36C262.381 46.36 262.691 46.0375 262.691 45.64C262.691 45.2426 262.381 44.92 262 44.92ZM262 47.8C261.618 47.8 261.308 48.1223 261.308 48.52C261.308 48.9176 261.618 49.24 262 49.24C262.381 49.24 262.691 48.9174 262.691 48.52C262.691 48.1226 262.381 47.8 262 47.8ZM262 50.68C261.618 50.68 261.308 51.0023 261.308 51.4C261.308 51.7976 261.618 52.12 262 52.12C262.381 52.12 262.691 51.7974 262.691 51.4C262.691 51.0026 262.381 50.68 262 50.68ZM262 53.56C261.618 53.56 261.308 53.8823 261.308 54.28C261.308 54.6776 261.618 55 262 55C262.381 55 262.691 54.6774 262.691 54.28C262.691 53.8826 262.381 53.56 262 53.56ZM262 56.44C261.618 56.44 261.308 56.7623 261.308 57.16C261.308 57.5576 261.618 57.88 262 57.88C262.381 57.88 262.691 57.5574 262.691 57.16C262.691 56.7626 262.381 56.44 262 56.44ZM262 59.32C261.618 59.32 261.308 59.6423 261.308 60.04C261.308 60.4376 261.618 60.7599 262 60.7599C262.381 60.76 262.691 60.4374 262.691 60.04C262.691 59.6426 262.381 59.32 262 59.32ZM262 62.2C261.618 62.2 261.308 62.5223 261.308 62.9199C261.308 63.3176 261.618 63.6399 262 63.6399C262.381 63.64 262.691 63.3174 262.691 62.92C262.691 62.5226 262.381 62.2 262 62.2ZM262 65.0799C261.618 65.0799 261.308 65.4023 261.308 65.7999C261.308 66.1976 261.618 66.5199 262 66.5199C262.381 66.52 262.691 66.1974 262.691 65.8C262.691 65.4026 262.381 65.08 262 65.0799ZM262 67.9599C261.618 67.9599 261.308 68.2823 261.308 68.6799C261.308 69.0776 261.618 69.3999 262 69.3999C262.381 69.4 262.691 69.0774 262.691 68.68C262.691 68.2826 262.381 67.96 262 67.9599ZM262 70.8399C261.618 70.8399 261.308 71.1623 261.308 71.5599C261.308 71.9576 261.618 72.2799 262 72.2799C262.381 72.28 262.691 71.9574 262.691 71.56C262.691 71.1626 262.381 70.84 262 70.8399ZM262 73.7199C261.618 73.7199 261.308 74.0425 261.308 74.4399C261.308 74.8374 261.618 75.1599 262 75.1599C262.381 75.16 262.691 74.8376 262.691 74.44C262.691 74.0423 262.381 73.72 262 73.7199ZM262 76.5999C261.618 76.5999 261.308 76.9225 261.308 77.3199C261.308 77.7174 261.618 78.0399 262 78.0399C262.381 78.04 262.691 77.7177 262.691 77.32C262.691 76.9223 262.381 76.6 262 76.5999ZM262 79.4799C261.618 79.4799 261.308 79.8025 261.308 80.1999C261.308 80.5974 261.618 80.9199 262 80.9199C262.381 80.92 262.691 80.5976 262.691 80.2C262.691 79.8023 262.381 79.48 262 79.4799ZM262 82.3599C261.618 82.3599 261.308 82.6825 261.308 83.0799C261.308 83.4774 261.618 83.7999 262 83.7999C262.381 83.8 262.691 83.4776 262.691 83.08C262.691 82.6823 262.381 82.36 262 82.3599ZM262 85.2399C261.618 85.2399 261.308 85.5625 261.308 85.9599C261.308 86.3574 261.618 86.6799 262 86.6799C262.381 86.68 262.691 86.3576 262.691 85.96C262.691 85.5623 262.381 85.24 262 85.2399ZM262 88.1199C261.618 88.1199 261.308 88.4425 261.308 88.8399C261.308 89.2374 261.618 89.5599 262 89.5599C262.381 89.56 262.691 89.2376 262.691 88.84C262.691 88.4423 262.381 88.12 262 88.1199ZM262 90.9999C261.618 90.9999 261.308 91.3225 261.308 91.7199C261.308 92.1174 261.618 92.4399 262 92.4399C262.381 92.44 262.691 92.1176 262.691 91.72C262.691 91.3223 262.381 91 262 90.9999ZM262 93.8799C261.618 93.8799 261.308 94.2025 261.308 94.5999C261.308 94.9974 261.618 95.3199 262 95.3199C262.381 95.32 262.691 94.9976 262.691 94.6C262.691 94.2023 262.381 93.88 262 93.8799ZM262 96.7599C261.618 96.7599 261.308 97.0825 261.308 97.4799C261.308 97.8774 261.618 98.1999 262 98.1999C262.381 98.2 262.691 97.8776 262.691 97.48C262.691 97.0823 262.381 96.76 262 96.7599ZM262 99.6399C261.618 99.6399 261.308 99.9625 261.308 100.36C261.308 100.757 261.618 101.08 262 101.08C262.381 101.08 262.691 100.758 262.691 100.36C262.691 99.9623 262.381 99.64 262 99.6399ZM262 102.52C261.618 102.52 261.308 102.842 261.308 103.24C261.308 103.637 261.618 103.96 262 103.96C262.381 103.96 262.691 103.638 262.691 103.24C262.691 102.842 262.381 102.52 262 102.52ZM262 105.4C261.618 105.4 261.308 105.722 261.308 106.12C261.308 106.517 261.618 106.84 262 106.84C262.381 106.84 262.691 106.518 262.691 106.12C262.691 105.722 262.381 105.4 262 105.4ZM262 108.28C261.618 108.28 261.308 108.602 261.308 109C261.308 109.397 261.618 109.72 262 109.72C262.381 109.72 262.691 109.398 262.691 109C262.691 108.602 262.381 108.28 262 108.28ZM262 111.16C261.618 111.16 261.308 111.482 261.308 111.88C261.308 112.277 261.618 112.6 262 112.6C262.381 112.6 262.691 112.278 262.691 111.88C262.691 111.482 262.381 111.16 262 111.16ZM262 114.04C261.618 114.04 261.308 114.362 261.308 114.76C261.308 115.157 261.618 115.48 262 115.48C262.381 115.48 262.691 115.158 262.691 114.76C262.691 114.362 262.381 114.04 262 114.04ZM262 116.92C261.618 116.92 261.308 117.242 261.308 117.64C261.308 118.037 261.618 118.36 262 118.36C262.381 118.36 262.691 118.038 262.691 117.64C262.691 117.242 262.381 116.92 262 116.92ZM262 119.8C261.618 119.8 261.308 120.122 261.308 120.52C261.308 120.917 261.618 121.24 262 121.24C262.381 121.24 262.691 120.918 262.691 120.52C262.691 120.122 262.381 119.8 262 119.8ZM262 122.68C261.618 122.68 261.308 123.002 261.308 123.4C261.308 123.797 261.618 124.12 262 124.12C262.381 124.12 262.691 123.798 262.691 123.4C262.691 123.002 262.381 122.68 262 122.68ZM262 125.56C261.618 125.56 261.308 125.882 261.308 126.28C261.308 126.677 261.618 127 262 127C262.381 127 262.691 126.678 262.691 126.28C262.691 125.882 262.381 125.56 262 125.56ZM262 128.44C261.618 128.44 261.308 128.762 261.308 129.16C261.308 129.557 261.618 129.88 262 129.88C262.381 129.88 262.691 129.558 262.691 129.16C262.691 128.762 262.381 128.44 262 128.44ZM262 131.32C261.618 131.32 261.308 131.642 261.308 132.04C261.308 132.437 261.618 132.76 262 132.76C262.381 132.76 262.691 132.438 262.691 132.04C262.691 131.642 262.381 131.32 262 131.32ZM262 134.2C261.618 134.2 261.308 134.522 261.308 134.92C261.308 135.317 261.618 135.64 262 135.64C262.381 135.64 262.691 135.318 262.691 134.92C262.691 134.522 262.381 134.2 262 134.2ZM262 137.08C261.618 137.08 261.308 137.402 261.308 137.8C261.308 138.197 261.618 138.52 262 138.52C262.381 138.52 262.691 138.198 262.691 137.8C262.691 137.402 262.381 137.08 262 137.08Z" fill="white"/>
    <path d="M262 6.76V5.76V6.76ZM256.466 1H257.466V0H256.466V1ZM267.526 1.00004V4.22001e-05L266.526 4.23193e-05V1.00004H267.526ZM377.036 1.00003V2.00003V1.00003ZM382.562 12.52V13.52H383.562V12.52H382.562ZM382.562 18.28H383.562V17.28H382.562V18.28ZM382.562 24.04V25.04H383.562V24.04H382.562ZM382.562 29.8H383.562V28.8H382.562V29.8ZM382.562 35.56V36.56H383.562V35.56H382.562ZM382.562 41.32H383.562V40.32H382.562V41.32ZM382.562 47.08V48.08H383.562V47.08H382.562ZM382.562 52.84H383.562V51.84H382.562V52.84ZM382.562 61.48V62.48H383.562V61.48H382.562ZM382.562 84.52H383.562V83.52H382.562V84.52ZM382.562 93.16V94.16H383.562V93.16H382.562ZM382.562 98.92H383.562V97.92H382.562V98.92ZM382.562 104.68V105.68H383.562V104.68H382.562ZM382.562 110.44H383.562V109.44H382.562V110.44ZM382.562 116.2V117.2H383.562V116.2H382.562ZM382.562 121.96H383.562V120.96H382.562V121.96ZM382.562 127.72V128.72H383.562V127.72H382.562ZM382.562 133.48H383.562V132.48H382.562V133.48ZM377.036 145V144V145ZM267.526 145H266.526V146H267.526V145ZM262 139.24L262 138.24H262V139.24ZM256.466 145V146H257.466V145H256.466ZM1 133.48V132.48H0V133.48H1ZM1 127.72H0V128.72H1V127.72ZM1 121.96V120.96H0V121.96H1ZM1 116.2H0V117.2H1V116.2ZM1 110.44V109.44H0V110.44H1ZM1 104.68H0V105.68H1V104.68ZM1 98.9199V97.9199H0V98.9199H1ZM1 93.1599H0V94.1599H1V93.1599ZM1 84.5199V83.5199H0V84.5199H1ZM1 61.4799H0V62.4799H1V61.4799ZM1 52.84V51.84H0V52.84H1ZM1 47.08H0V48.08H1V47.08ZM1 41.32V40.32H0V41.32H1ZM1 35.56H0V36.56H1V35.56ZM1 29.8V28.8H0V29.8H1ZM1 24.04H0V25.04H1V24.04ZM1 18.28V17.28H0V18.28H1ZM1 12.52H0V13.52H1V12.52ZM262 7.47999L262 6.47999H262V7.47999ZM262 8.91999L262 7.91999H262V8.91999ZM262 10.36L262 9.35999H262V10.36ZM262 11.8L262 10.8H262V11.8ZM262 13.24L262 12.24H262V13.24ZM262 14.68L262 13.68H262V14.68ZM262 16.12L262 15.12H262V16.12ZM262 17.56L262 16.56H262V17.56ZM262 19L262 18H262V19ZM262 20.44L262 19.44H262V20.44ZM262 21.88L262 20.88H262V21.88ZM262 23.32L262 22.32H262V23.32ZM262 24.76L262 23.76H262V24.76ZM262 26.2L262 25.2H262V26.2ZM262 27.64L262 26.64H262V27.64ZM262 29.08L262 28.08H262V29.08ZM262 30.52L262 29.52H262V30.52ZM262 31.96L262 30.96H262V31.96ZM262 33.4L262 32.4H262V33.4ZM262 34.84L262 33.84H262V34.84ZM262 36.28L262 35.28H262V36.28ZM262 37.72L262 36.72H262V37.72ZM262 39.16L262 38.16H262V39.16ZM262 40.6L262 39.6H262V40.6ZM262 42.04L262 41.04H262V42.04ZM262 43.48L262 42.48H262V43.48ZM262 44.92L262 43.92H262V44.92ZM262 46.36L262 45.36H262V46.36ZM262 47.8L262 46.8H262V47.8ZM262 49.24L262 48.24H262V49.24ZM262 50.68L262 49.68H262V50.68ZM262 52.12L262 51.12H262V52.12ZM262 53.56L262 52.56H262V53.56ZM262 55L262 54H262V55ZM262 56.44L262 55.44H262V56.44ZM262 57.88L262 56.88H262V57.88ZM262 59.32L262 58.32H262V59.32ZM262 60.7599L262 59.7599H262V60.7599ZM262 62.2L262 61.2H262V62.2ZM262 63.6399L262 62.6399H262V63.6399ZM262 65.0799L262 64.0799H262V65.0799ZM262 66.5199L262 65.5199H262V66.5199ZM262 67.9599L262 66.9599H262V67.9599ZM262 69.3999L262 68.3999H262V69.3999ZM262 70.8399L262 69.8399H262V70.8399ZM262 72.2799L262 71.2799H262V72.2799ZM262 73.7199L262 72.7199H262V73.7199ZM262 75.1599L262 74.1599H262V75.1599ZM262 76.5999L262 75.5999H262V76.5999ZM262 78.0399L262 77.0399H262V78.0399ZM262 79.4799L262 78.4799H262V79.4799ZM262 80.9199L262 79.9199H262V80.9199ZM262 82.3599L262 81.3599H262V82.3599ZM262 83.7999L262 82.7999H262V83.7999ZM262 85.2399L262 84.2399H262V85.2399ZM262 86.6799L262 85.6799H262V86.6799ZM262 88.1199L262 87.1199H262V88.1199ZM262 89.5599L262 88.5599H262V89.5599ZM262 90.9999L262 89.9999H262V90.9999ZM262 92.4399L262 91.4399H262V92.4399ZM262 93.8799L262 92.8799H262V93.8799ZM262 95.3199L262 94.3199H262V95.3199ZM262 96.7599L262 95.7599H262V96.7599ZM262 98.1999L262 97.1999H262V98.1999ZM262 99.6399L262 98.6399H262V99.6399ZM262 101.08L262 100.08H262V101.08ZM262 102.52L262 101.52H262V102.52ZM262 103.96L262 102.96H262V103.96ZM262 105.4L262 104.4H262V105.4ZM262 106.84L262 105.84H262V106.84ZM262 108.28L262 107.28H262V108.28ZM262 109.72L262 108.72H262V109.72ZM262 111.16L262 110.16H262V111.16ZM262 112.6L262 111.6H262V112.6ZM262 114.04L262 113.04H262V114.04ZM262 115.48L262 114.48H262V115.48ZM262 116.92L262 115.92H262V116.92ZM262 118.36L262 117.36H262V118.36ZM262 119.8L262 118.8H262V119.8ZM262 121.24L262 120.24H262V121.24ZM262 122.68L262 121.68H262V122.68ZM262 124.12L262 123.12H262V124.12ZM262 125.56L262 124.56H262V125.56ZM262 127L262 126H262V127ZM262 128.44L262 127.44H262V128.44ZM262 129.88L262 128.88H262V129.88ZM262 131.32L262 130.32H262V131.32ZM262 132.76L262 131.76H262V132.76ZM262 134.2L262 133.2H262V134.2ZM262 135.64L262 134.64H262V135.64ZM262 137.08L262 136.08H262V137.08ZM262 138.52L262 137.52H262V138.52ZM262 5.76C259.534 5.76 257.466 3.66699 257.466 1H255.466C255.466 4.69533 258.354 7.76 262 7.76V5.76ZM266.526 1.00004C266.526 3.66825 264.461 5.76002 262 5.76V7.76C265.643 7.76004 268.526 4.69375 268.526 1.00004H266.526ZM377.036 3.22461e-05L267.526 4.22001e-05V2.00004L377.036 2.00003V3.22461e-05ZM383.562 6.76002C383.562 3.06632 380.679 3.18885e-05 377.036 3.22461e-05V2.00003C379.497 2.00003 381.562 4.0918 381.562 6.76002H383.562ZM383.562 12.52V6.76002H381.562V12.52H383.562ZM380.799 15.4C380.799 14.3223 381.627 13.52 382.562 13.52V11.52C380.445 11.52 378.799 13.2968 378.799 15.4H380.799ZM382.562 17.28C381.627 17.28 380.799 16.4778 380.799 15.4H378.799C378.799 17.5032 380.445 19.28 382.562 19.28V17.28ZM383.562 24.04V18.28H381.562V24.04H383.562ZM380.799 26.92C380.799 25.8423 381.627 25.04 382.562 25.04V23.04C380.445 23.04 378.799 24.8168 378.799 26.92H380.799ZM382.562 28.8C381.627 28.8 380.799 27.9978 380.799 26.92H378.799C378.799 29.0232 380.445 30.8 382.562 30.8V28.8ZM383.562 35.56V29.8H381.562V35.56H383.562ZM380.799 38.44C380.799 37.3622 381.627 36.56 382.562 36.56V34.56C380.445 34.56 378.799 36.3368 378.799 38.44H380.799ZM382.562 40.32C381.627 40.32 380.799 39.5178 380.799 38.44H378.799C378.799 40.5432 380.445 42.32 382.562 42.32V40.32ZM383.562 47.08V41.32H381.562V47.08H383.562ZM380.799 49.96C380.799 48.8822 381.627 48.08 382.562 48.08V46.08C380.445 46.08 378.799 47.8568 378.799 49.96H380.799ZM382.562 51.84C381.627 51.84 380.799 51.0378 380.799 49.96H378.799C378.799 52.0632 380.445 53.84 382.562 53.84V51.84ZM383.562 61.48V52.84H381.562V61.48H383.562ZM372.51 73C372.51 67.1501 377.049 62.48 382.562 62.48V60.48C375.867 60.48 370.51 66.1246 370.51 73H372.51ZM382.562 83.52C377.049 83.52 372.51 78.8496 372.51 73H370.51C370.51 79.8751 375.867 85.52 382.562 85.52V83.52ZM383.562 93.16V84.52H381.562V93.16H383.562ZM380.799 96.04C380.799 94.9622 381.627 94.16 382.562 94.16V92.16C380.445 92.16 378.799 93.9367 378.799 96.04H380.799ZM382.562 97.92C381.627 97.92 380.799 97.1178 380.799 96.04H378.799C378.799 98.1433 380.445 99.92 382.562 99.92V97.92ZM383.562 104.68V98.92H381.562V104.68H383.562ZM380.799 107.56C380.799 106.482 381.627 105.68 382.562 105.68V103.68C380.445 103.68 378.799 105.457 378.799 107.56H380.799ZM382.562 109.44C381.627 109.44 380.799 108.638 380.799 107.56H378.799C378.799 109.663 380.445 111.44 382.562 111.44V109.44ZM383.562 116.2V110.44H381.562V116.2H383.562ZM380.799 119.08C380.799 118.002 381.627 117.2 382.562 117.2V115.2C380.445 115.2 378.799 116.977 378.799 119.08H380.799ZM382.562 120.96C381.627 120.96 380.799 120.158 380.799 119.08H378.799C378.799 121.183 380.445 122.96 382.562 122.96V120.96ZM383.562 127.72V121.96H381.562V127.72H383.562ZM380.799 130.6C380.799 129.522 381.627 128.72 382.562 128.72V126.72C380.445 126.72 378.799 128.497 378.799 130.6H380.799ZM382.562 132.48C381.627 132.48 380.799 131.678 380.799 130.6H378.799C378.799 132.703 380.445 134.48 382.562 134.48V132.48ZM383.562 139.24V133.48H381.562V139.24H383.562ZM377.036 146C380.679 146 383.562 142.934 383.562 139.24H381.562C381.562 141.908 379.497 144 377.036 144V146ZM267.526 146L377.036 146V144L267.526 144V146ZM262 140.24C264.461 140.24 266.526 142.332 266.526 145H268.526C268.526 141.306 265.643 138.24 262 138.24L262 140.24ZM257.466 145C257.466 142.333 259.534 140.24 262 140.24V138.24C258.354 138.24 255.466 141.305 255.466 145H257.466ZM6.53379 146H256.466V144H6.53379V146ZM0 139.24C0 142.935 2.88787 146 6.53379 146V144C4.06726 144 2 141.907 2 139.24H0ZM0 133.48V139.24H2V133.48H0ZM2.76689 130.6C2.76689 131.676 1.93842 132.48 1 132.48V134.48C3.1178 134.48 4.76689 132.704 4.76689 130.6H2.76689ZM1 128.72C1.93842 128.72 2.76689 129.524 2.76689 130.6H4.76689C4.76689 128.495 3.1178 126.72 1 126.72V128.72ZM0 121.96V127.72H2V121.96H0ZM2.76689 119.08C2.76689 120.156 1.93842 120.96 1 120.96V122.96C3.1178 122.96 4.76689 121.185 4.76689 119.08H2.76689ZM1 117.2C1.93843 117.2 2.76689 118.004 2.76689 119.08H4.76689C4.76689 116.975 3.1178 115.2 1 115.2V117.2ZM0 110.44V116.2H2V110.44H0ZM2.76689 107.56C2.76689 108.636 1.93842 109.44 1 109.44V111.44C3.1178 111.44 4.76689 109.665 4.76689 107.56H2.76689ZM1 105.68C1.93843 105.68 2.76689 106.484 2.76689 107.56H4.76689C4.76689 105.455 3.1178 103.68 1 103.68V105.68ZM0 98.9199V104.68H2V98.9199H0ZM2.76689 96.0399C2.76689 97.1163 1.93843 97.9199 1 97.9199V99.9199C3.1178 99.9199 4.76689 98.1445 4.76689 96.0399H2.76689ZM1 94.1599C1.93842 94.1599 2.76689 94.9636 2.76689 96.0399H4.76689C4.76689 93.9353 3.1178 92.1599 1 92.1599V94.1599ZM0 84.5199V93.1599H2V84.5199H0ZM11.0676 72.9999C11.0676 78.8484 6.5228 83.5199 1 83.5199V85.5199C7.7021 85.5199 13.0676 79.8767 13.0676 72.9999H11.0676ZM1 62.4799C6.52279 62.4799 11.0676 67.1517 11.0676 72.9999H13.0676C13.0676 66.1235 7.70212 60.4799 1 60.4799V62.4799ZM0 52.84V61.4799H2V52.84H0ZM2.76689 49.96C2.76689 51.0364 1.93844 51.84 1 51.84V53.84C3.11779 53.84 4.76689 52.0647 4.76689 49.96H2.76689ZM1 48.08C1.93844 48.08 2.76689 48.8835 2.76689 49.96H4.76689C4.76689 47.8553 3.11779 46.08 1 46.08V48.08ZM0 41.32V47.08H2V41.32H0ZM2.76689 38.44C2.76689 39.5164 1.93844 40.32 1 40.32V42.32C3.11779 42.32 4.76689 40.5447 4.76689 38.44H2.76689ZM1 36.56C1.93844 36.56 2.76689 37.3636 2.76689 38.44H4.76689C4.76689 36.3353 3.11779 34.56 1 34.56V36.56ZM0 29.8V35.56H2V29.8H0ZM2.76689 26.92C2.76689 27.9964 1.93844 28.8 1 28.8V30.8C3.11779 30.8 4.76689 29.0247 4.76689 26.92H2.76689ZM1 25.04C1.93844 25.04 2.76689 25.8436 2.76689 26.92H4.76689C4.76689 24.8153 3.11779 23.04 1 23.04V25.04ZM0 18.28V24.04H2V18.28H0ZM2.76689 15.4C2.76689 16.4764 1.93844 17.28 1 17.28V19.28C3.11779 19.28 4.76689 17.5047 4.76689 15.4H2.76689ZM1 13.52C1.93844 13.52 2.76689 14.3236 2.76689 15.4H4.76689C4.76689 13.2953 3.11779 11.52 1 11.52V13.52ZM0 6.76V12.52H2V6.76H0ZM6.53379 0C2.88789 0 0 3.0647 0 6.76H2C2 4.09299 4.06723 2 6.53379 2V0ZM256.466 0H6.53379V2H256.466V0ZM262.308 8.19999C262.308 8.31666 262.208 8.47999 262 8.47999V6.47999C261.029 6.47999 260.308 7.28805 260.308 8.19999H262.308ZM262 7.91999C262.208 7.91999 262.308 8.08333 262.308 8.19999H260.308C260.308 9.11197 261.029 9.91999 262 9.91999V7.91999ZM261.691 8.20004C261.691 8.08475 261.79 7.91997 262 7.91999L262 9.91999C262.972 9.92009 263.691 9.1102 263.691 8.20004H261.691ZM262 8.47999C261.79 8.47997 261.691 8.31538 261.691 8.20004H263.691C263.691 7.28982 262.972 6.48011 262 6.47999L262 8.47999ZM262.308 11.08C262.308 11.1967 262.208 11.36 262 11.36V9.35999C261.029 9.35999 260.308 10.168 260.308 11.08H262.308ZM262 10.8C262.208 10.8 262.308 10.9633 262.308 11.08H260.308C260.308 11.992 261.029 12.8 262 12.8V10.8ZM261.691 11.08C261.691 10.9648 261.79 10.8 262 10.8L262 12.8C262.972 12.8001 263.691 11.9902 263.691 11.08H261.691ZM262 11.36C261.79 11.36 261.691 11.1954 261.691 11.08H263.691C263.691 10.1698 262.972 9.3601 262 9.35999L262 11.36ZM262.308 13.96C262.308 14.0767 262.208 14.24 262 14.24V12.24C261.029 12.24 260.308 13.048 260.308 13.96H262.308ZM262 13.68C262.208 13.68 262.308 13.8433 262.308 13.96H260.308C260.308 14.872 261.029 15.68 262 15.68V13.68ZM261.691 13.96C261.691 13.8447 261.79 13.68 262 13.68L262 15.68C262.972 15.6801 263.691 14.8702 263.691 13.96H261.691ZM262 14.24C261.79 14.24 261.691 14.0754 261.691 13.96H263.691C263.691 13.0498 262.972 12.2401 262 12.24L262 14.24ZM262.308 16.84C262.308 16.9567 262.208 17.12 262 17.12V15.12C261.029 15.12 260.308 15.928 260.308 16.84H262.308ZM262 16.56C262.208 16.56 262.308 16.7233 262.308 16.84H260.308C260.308 17.752 261.029 18.56 262 18.56V16.56ZM261.691 16.84C261.691 16.7248 261.79 16.56 262 16.56L262 18.56C262.972 18.5601 263.691 17.7502 263.691 16.84H261.691ZM262 17.12C261.79 17.12 261.691 16.9554 261.691 16.84H263.691C263.691 15.9298 262.972 15.1201 262 15.12L262 17.12ZM262.308 19.72C262.308 19.8366 262.208 20 262 20V18C261.029 18 260.308 18.808 260.308 19.72H262.308ZM262 19.44C262.208 19.44 262.308 19.6033 262.308 19.72H260.308C260.308 20.632 261.029 21.44 262 21.44V19.44ZM261.691 19.72C261.691 19.6048 261.79 19.44 262 19.44L262 21.44C262.972 21.4401 263.691 20.6302 263.691 19.72H261.691ZM262 20C261.79 20 261.691 19.8353 261.691 19.72H263.691C263.691 18.8098 262.972 18.0001 262 18L262 20ZM262.308 22.6C262.308 22.7166 262.208 22.88 262 22.88V20.88C261.029 20.88 260.308 21.688 260.308 22.6H262.308ZM262 22.32C262.208 22.32 262.308 22.4833 262.308 22.6H260.308C260.308 23.512 261.029 24.32 262 24.32V22.32ZM261.691 22.6C261.691 22.4848 261.79 22.32 262 22.32L262 24.32C262.972 24.3201 263.691 23.5102 263.691 22.6H261.691ZM262 22.88C261.79 22.88 261.691 22.7154 261.691 22.6H263.691C263.691 21.6898 262.972 20.8801 262 20.88L262 22.88ZM262.308 25.48C262.308 25.5966 262.208 25.76 262 25.76V23.76C261.029 23.76 260.308 24.568 260.308 25.48H262.308ZM262 25.2C262.208 25.2 262.308 25.3633 262.308 25.48H260.308C260.308 26.392 261.029 27.2 262 27.2V25.2ZM261.691 25.48C261.691 25.3648 261.79 25.2 262 25.2L262 27.2C262.972 27.2001 263.691 26.3902 263.691 25.48H261.691ZM262 25.76C261.79 25.76 261.691 25.5953 261.691 25.48H263.691C263.691 24.5698 262.972 23.7601 262 23.76L262 25.76ZM262.308 28.36C262.308 28.4766 262.208 28.64 262 28.64V26.64C261.029 26.64 260.308 27.448 260.308 28.36H262.308ZM262 28.08C262.208 28.08 262.308 28.2433 262.308 28.36H260.308C260.308 29.2719 261.029 30.08 262 30.08V28.08ZM261.691 28.36C261.691 28.2447 261.79 28.08 262 28.08L262 30.08C262.972 30.0801 263.691 29.2702 263.691 28.36H261.691ZM262 28.64C261.79 28.64 261.691 28.4754 261.691 28.36H263.691C263.691 27.4498 262.972 26.6401 262 26.64L262 28.64ZM262.308 31.24C262.308 31.3566 262.208 31.52 262 31.52V29.52C261.029 29.52 260.308 30.328 260.308 31.24H262.308ZM262 30.96C262.208 30.96 262.308 31.1233 262.308 31.24H260.308C260.308 32.152 261.029 32.96 262 32.96V30.96ZM261.691 31.24C261.691 31.1248 261.79 30.9599 262 30.96L262 32.96C262.972 32.9601 263.691 32.1502 263.691 31.24H261.691ZM262 31.52C261.79 31.52 261.691 31.3553 261.691 31.24H263.691C263.691 30.3298 262.972 29.5201 262 29.52L262 31.52ZM262.308 34.12C262.308 34.2366 262.208 34.4 262 34.4V32.4C261.029 32.4 260.308 33.208 260.308 34.12H262.308ZM262 33.84C262.208 33.84 262.308 34.0033 262.308 34.12H260.308C260.308 35.032 261.029 35.84 262 35.84V33.84ZM261.691 34.12C261.691 34.0047 261.79 33.84 262 33.84L262 35.84C262.972 35.8401 263.691 35.0302 263.691 34.12H261.691ZM262 34.4C261.79 34.4 261.691 34.2353 261.691 34.12H263.691C263.691 33.2098 262.972 32.4001 262 32.4L262 34.4ZM262.308 37C262.308 37.1166 262.208 37.28 262 37.28V35.28C261.029 35.28 260.308 36.088 260.308 37H262.308ZM262 36.72C262.208 36.72 262.308 36.8833 262.308 37H260.308C260.308 37.912 261.029 38.72 262 38.72V36.72ZM261.691 37C261.691 36.8847 261.79 36.7199 262 36.72L262 38.72C262.972 38.7201 263.691 37.9102 263.691 37H261.691ZM262 37.28C261.79 37.2799 261.691 37.1153 261.691 37H263.691C263.691 36.0898 262.972 35.2801 262 35.28L262 37.28ZM262.308 39.88C262.308 39.9966 262.208 40.16 262 40.16V38.16C261.029 38.16 260.308 38.968 260.308 39.88H262.308ZM262 39.6C262.208 39.6 262.308 39.7633 262.308 39.88H260.308C260.308 40.792 261.029 41.6 262 41.6V39.6ZM261.691 39.88C261.691 39.7647 261.79 39.5999 262 39.6L262 41.6C262.972 41.6001 263.691 40.7902 263.691 39.88H261.691ZM262 40.16C261.79 40.1599 261.691 39.9953 261.691 39.88H263.691C263.691 38.9698 262.972 38.1601 262 38.16L262 40.16ZM262.308 42.76C262.308 42.8766 262.208 43.04 262 43.04V41.04C261.029 41.04 260.308 41.848 260.308 42.76H262.308ZM262 42.48C262.208 42.48 262.308 42.6433 262.308 42.76H260.308C260.308 43.6719 261.029 44.48 262 44.48V42.48ZM261.691 42.76C261.691 42.6447 261.79 42.4799 262 42.48L262 44.48C262.972 44.4801 263.691 43.6702 263.691 42.76H261.691ZM262 43.04C261.79 43.0399 261.691 42.8754 261.691 42.76H263.691C263.691 41.8498 262.972 41.0401 262 41.04L262 43.04ZM262.308 45.64C262.308 45.7566 262.208 45.92 262 45.92V43.92C261.029 43.92 260.308 44.728 260.308 45.64H262.308ZM262 45.36C262.208 45.36 262.308 45.5233 262.308 45.64H260.308C260.308 46.5519 261.029 47.36 262 47.36V45.36ZM261.691 45.64C261.691 45.5247 261.79 45.3599 262 45.36L262 47.36C262.972 47.3601 263.691 46.5502 263.691 45.64H261.691ZM262 45.92C261.79 45.9199 261.691 45.7553 261.691 45.64H263.691C263.691 44.7298 262.972 43.9201 262 43.92L262 45.92ZM262.308 48.52C262.308 48.6366 262.208 48.8 262 48.8V46.8C261.029 46.8 260.308 47.608 260.308 48.52H262.308ZM262 48.24C262.208 48.24 262.308 48.4033 262.308 48.52H260.308C260.308 49.4319 261.029 50.24 262 50.24V48.24ZM261.691 48.52C261.691 48.4047 261.79 48.2399 262 48.24L262 50.24C262.972 50.2401 263.691 49.4302 263.691 48.52H261.691ZM262 48.8C261.79 48.7999 261.691 48.6353 261.691 48.52H263.691C263.691 47.6098 262.972 46.8001 262 46.8L262 48.8ZM262.308 51.4C262.308 51.5166 262.208 51.68 262 51.68V49.68C261.029 49.68 260.308 50.488 260.308 51.4H262.308ZM262 51.12C262.208 51.12 262.308 51.2833 262.308 51.4H260.308C260.308 52.3119 261.029 53.12 262 53.12V51.12ZM261.691 51.4C261.691 51.2847 261.79 51.1199 262 51.12L262 53.12C262.972 53.1201 263.691 52.3102 263.691 51.4H261.691ZM262 51.68C261.79 51.6799 261.691 51.5153 261.691 51.4H263.691C263.691 50.4898 262.972 49.6801 262 49.68L262 51.68ZM262.308 54.28C262.308 54.3966 262.208 54.56 262 54.56V52.56C261.029 52.56 260.308 53.368 260.308 54.28H262.308ZM262 54C262.208 54 262.308 54.1633 262.308 54.28H260.308C260.308 55.1919 261.029 56 262 56V54ZM261.691 54.28C261.691 54.1647 261.79 53.9999 262 54L262 56C262.972 56.0001 263.691 55.1902 263.691 54.28H261.691ZM262 54.56C261.79 54.5599 261.691 54.3953 261.691 54.28H263.691C263.691 53.3698 262.972 52.5601 262 52.56L262 54.56ZM262.308 57.16C262.308 57.2766 262.208 57.44 262 57.44V55.44C261.029 55.44 260.308 56.248 260.308 57.16H262.308ZM262 56.88C262.208 56.88 262.308 57.0433 262.308 57.16H260.308C260.308 58.0719 261.029 58.88 262 58.88V56.88ZM261.691 57.16C261.691 57.0447 261.79 56.8799 262 56.88L262 58.88C262.972 58.8801 263.691 58.0702 263.691 57.16H261.691ZM262 57.44C261.79 57.4399 261.691 57.2753 261.691 57.16H263.691C263.691 56.2498 262.972 55.4401 262 55.44L262 57.44ZM262.308 60.04C262.308 60.1566 262.208 60.32 262 60.32V58.32C261.029 58.32 260.308 59.128 260.308 60.04H262.308ZM262 59.7599C262.208 59.7599 262.308 59.9233 262.308 60.04H260.308C260.308 60.9519 261.029 61.7599 262 61.7599V59.7599ZM261.691 60.04C261.691 59.9247 261.79 59.7599 262 59.7599L262 61.7599C262.972 61.7601 263.691 60.9501 263.691 60.04H261.691ZM262 60.32C261.79 60.3199 261.691 60.1553 261.691 60.04H263.691C263.691 59.1298 262.972 58.3201 262 58.32L262 60.32ZM262.308 62.9199C262.308 63.0366 262.208 63.2 262 63.2V61.2C261.029 61.2 260.308 62.008 260.308 62.9199H262.308ZM262 62.6399C262.208 62.6399 262.308 62.8033 262.308 62.9199H260.308C260.308 63.8319 261.029 64.6399 262 64.6399V62.6399ZM261.691 62.92C261.691 62.8047 261.79 62.6399 262 62.6399L262 64.6399C262.972 64.6401 263.691 63.8302 263.691 62.92H261.691ZM262 63.2C261.79 63.1999 261.691 63.0353 261.691 62.92H263.691C263.691 62.0098 262.972 61.2001 262 61.2L262 63.2ZM262.308 65.7999C262.308 65.9166 262.208 66.0799 262 66.0799V64.0799C261.029 64.0799 260.308 64.888 260.308 65.7999H262.308ZM262 65.5199C262.208 65.5199 262.308 65.6833 262.308 65.7999H260.308C260.308 66.7119 261.029 67.5199 262 67.5199V65.5199ZM261.691 65.8C261.691 65.6847 261.79 65.5199 262 65.5199L262 67.5199C262.972 67.5201 263.691 66.7101 263.691 65.8H261.691ZM262 66.0799C261.79 66.0799 261.691 65.9153 261.691 65.8H263.691C263.691 64.8898 262.972 64.0801 262 64.0799L262 66.0799ZM262.308 68.6799C262.308 68.7966 262.208 68.9599 262 68.9599V66.9599C261.029 66.9599 260.308 67.768 260.308 68.6799H262.308ZM262 68.3999C262.208 68.3999 262.308 68.5633 262.308 68.6799H260.308C260.308 69.5919 261.029 70.3999 262 70.3999V68.3999ZM261.691 68.68C261.691 68.5648 261.79 68.3999 262 68.3999L262 70.3999C262.972 70.4001 263.691 69.5901 263.691 68.68H261.691ZM262 68.9599C261.79 68.9599 261.691 68.7953 261.691 68.68H263.691C263.691 67.7698 262.972 66.9601 262 66.9599L262 68.9599ZM262.308 71.5599C262.308 71.6766 262.208 71.8399 262 71.8399V69.8399C261.029 69.8399 260.308 70.648 260.308 71.5599H262.308ZM262 71.2799C262.208 71.2799 262.308 71.4433 262.308 71.5599H260.308C260.308 72.4719 261.029 73.2799 262 73.2799V71.2799ZM261.691 71.56C261.691 71.4448 261.79 71.2799 262 71.2799L262 73.2799C262.972 73.2801 263.691 72.4701 263.691 71.56H261.691ZM262 71.8399C261.79 71.8399 261.691 71.6753 261.691 71.56H263.691C263.691 70.6498 262.972 69.8401 262 69.8399L262 71.8399ZM262.308 74.4399C262.308 74.5566 262.208 74.7199 262 74.7199V72.7199C261.028 72.7199 260.308 73.5284 260.308 74.4399H262.308ZM262 74.1599C262.208 74.1599 262.308 74.3233 262.308 74.4399H260.308C260.308 75.3515 261.028 76.1599 262 76.1599V74.1599ZM261.691 74.44C261.691 74.3248 261.79 74.1599 262 74.1599L262 76.1599C262.972 76.1601 263.691 75.3505 263.691 74.44H261.691ZM262 74.7199C261.79 74.7199 261.691 74.5553 261.691 74.44H263.691C263.691 73.5294 262.972 72.7201 262 72.7199L262 74.7199ZM262.308 77.3199C262.308 77.4366 262.208 77.5999 262 77.5999V75.5999C261.028 75.5999 260.308 76.4084 260.308 77.3199H262.308ZM262 77.0399C262.208 77.0399 262.308 77.2033 262.308 77.3199H260.308C260.308 78.2315 261.028 79.0399 262 79.0399V77.0399ZM261.691 77.32C261.691 77.2048 261.79 77.0399 262 77.0399L262 79.0399C262.972 79.0401 263.691 78.2305 263.691 77.32H261.691ZM262 77.5999C261.79 77.5999 261.691 77.4353 261.691 77.32H263.691C263.691 76.4094 262.972 75.6001 262 75.5999L262 77.5999ZM262.308 80.1999C262.308 80.3166 262.208 80.4799 262 80.4799V78.4799C261.028 78.4799 260.308 79.2884 260.308 80.1999H262.308ZM262 79.9199C262.208 79.9199 262.308 80.0833 262.308 80.1999H260.308C260.308 81.1115 261.028 81.9199 262 81.9199V79.9199ZM261.691 80.2C261.691 80.0848 261.79 79.9199 262 79.9199L262 81.9199C262.972 81.9201 263.691 81.1105 263.691 80.2H261.691ZM262 80.4799C261.79 80.4799 261.691 80.3153 261.691 80.2H263.691C263.691 79.2894 262.972 78.4801 262 78.4799L262 80.4799ZM262.308 83.0799C262.308 83.1966 262.208 83.3599 262 83.3599V81.3599C261.028 81.3599 260.308 82.1684 260.308 83.0799H262.308ZM262 82.7999C262.208 82.7999 262.308 82.9633 262.308 83.0799H260.308C260.308 83.9915 261.028 84.7999 262 84.7999V82.7999ZM261.691 83.08C261.691 82.9648 261.79 82.7999 262 82.7999L262 84.7999C262.972 84.8001 263.691 83.9905 263.691 83.08H261.691ZM262 83.3599C261.79 83.3599 261.691 83.1953 261.691 83.08H263.691C263.691 82.1694 262.972 81.3601 262 81.3599L262 83.3599ZM262.308 85.9599C262.308 86.0766 262.208 86.2399 262 86.2399V84.2399C261.028 84.2399 260.308 85.0484 260.308 85.9599H262.308ZM262 85.6799C262.208 85.6799 262.308 85.8432 262.308 85.9599H260.308C260.308 86.8715 261.028 87.6799 262 87.6799V85.6799ZM261.691 85.96C261.691 85.8448 261.79 85.6799 262 85.6799L262 87.6799C262.972 87.6801 263.691 86.8705 263.691 85.96H261.691ZM262 86.2399C261.79 86.2399 261.691 86.0753 261.691 85.96H263.691C263.691 85.0494 262.972 84.2401 262 84.2399L262 86.2399ZM262.308 88.8399C262.308 88.9566 262.208 89.1199 262 89.1199V87.1199C261.028 87.1199 260.308 87.9284 260.308 88.8399H262.308ZM262 88.5599C262.208 88.5599 262.308 88.7233 262.308 88.8399H260.308C260.308 89.7515 261.028 90.5599 262 90.5599V88.5599ZM261.691 88.84C261.691 88.7248 261.79 88.5599 262 88.5599L262 90.5599C262.972 90.5601 263.691 89.7505 263.691 88.84H261.691ZM262 89.1199C261.79 89.1199 261.691 88.9553 261.691 88.84H263.691C263.691 87.9294 262.972 87.1201 262 87.1199L262 89.1199ZM262.308 91.7199C262.308 91.8366 262.208 91.9999 262 91.9999V89.9999C261.028 89.9999 260.308 90.8084 260.308 91.7199H262.308ZM262 91.4399C262.208 91.4399 262.308 91.6032 262.308 91.7199H260.308C260.308 92.6315 261.028 93.4399 262 93.4399V91.4399ZM261.691 91.72C261.691 91.6048 261.79 91.4399 262 91.4399L262 93.4399C262.972 93.4401 263.691 92.6305 263.691 91.72H261.691ZM262 91.9999C261.79 91.9999 261.691 91.8353 261.691 91.72H263.691C263.691 90.8094 262.972 90.0001 262 89.9999L262 91.9999ZM262.308 94.5999C262.308 94.7166 262.208 94.8799 262 94.8799V92.8799C261.028 92.8799 260.308 93.6884 260.308 94.5999H262.308ZM262 94.3199C262.208 94.3199 262.308 94.4832 262.308 94.5999H260.308C260.308 95.5115 261.028 96.3199 262 96.3199V94.3199ZM261.691 94.6C261.691 94.4848 261.79 94.3199 262 94.3199L262 96.3199C262.972 96.3201 263.691 95.5105 263.691 94.6H261.691ZM262 94.8799C261.79 94.8799 261.691 94.7153 261.691 94.6H263.691C263.691 93.6894 262.972 92.8801 262 92.8799L262 94.8799ZM262.308 97.4799C262.308 97.5966 262.208 97.7599 262 97.7599V95.7599C261.028 95.7599 260.308 96.5684 260.308 97.4799H262.308ZM262 97.1999C262.208 97.1999 262.308 97.3632 262.308 97.4799H260.308C260.308 98.3915 261.028 99.1999 262 99.1999V97.1999ZM261.691 97.48C261.691 97.3648 261.79 97.1999 262 97.1999L262 99.1999C262.972 99.2001 263.691 98.3905 263.691 97.48H261.691ZM262 97.7599C261.79 97.7599 261.691 97.5953 261.691 97.48H263.691C263.691 96.5694 262.972 95.7601 262 95.7599L262 97.7599ZM262.308 100.36C262.308 100.477 262.208 100.64 262 100.64V98.6399C261.028 98.6399 260.308 99.4483 260.308 100.36H262.308ZM262 100.08C262.208 100.08 262.308 100.243 262.308 100.36H260.308C260.308 101.271 261.028 102.08 262 102.08V100.08ZM261.691 100.36C261.691 100.245 261.79 100.08 262 100.08L262 102.08C262.972 102.08 263.691 101.271 263.691 100.36H261.691ZM262 100.64C261.79 100.64 261.691 100.475 261.691 100.36H263.691C263.691 99.4494 262.972 98.6401 262 98.6399L262 100.64ZM262.308 103.24C262.308 103.357 262.208 103.52 262 103.52V101.52C261.028 101.52 260.308 102.328 260.308 103.24H262.308ZM262 102.96C262.208 102.96 262.308 103.123 262.308 103.24H260.308C260.308 104.151 261.028 104.96 262 104.96V102.96ZM261.691 103.24C261.691 103.125 261.79 102.96 262 102.96L262 104.96C262.972 104.96 263.691 104.151 263.691 103.24H261.691ZM262 103.52C261.79 103.52 261.691 103.355 261.691 103.24H263.691C263.691 102.329 262.972 101.52 262 101.52L262 103.52ZM262.308 106.12C262.308 106.237 262.208 106.4 262 106.4V104.4C261.028 104.4 260.308 105.208 260.308 106.12H262.308ZM262 105.84C262.208 105.84 262.308 106.003 262.308 106.12H260.308C260.308 107.031 261.028 107.84 262 107.84V105.84ZM261.691 106.12C261.691 106.005 261.79 105.84 262 105.84L262 107.84C262.972 107.84 263.691 107.031 263.691 106.12H261.691ZM262 106.4C261.79 106.4 261.691 106.235 261.691 106.12H263.691C263.691 105.209 262.972 104.4 262 104.4L262 106.4ZM262.308 109C262.308 109.117 262.208 109.28 262 109.28V107.28C261.028 107.28 260.308 108.088 260.308 109H262.308ZM262 108.72C262.208 108.72 262.308 108.883 262.308 109H260.308C260.308 109.911 261.028 110.72 262 110.72V108.72ZM261.691 109C261.691 108.885 261.79 108.72 262 108.72L262 110.72C262.972 110.72 263.691 109.911 263.691 109H261.691ZM262 109.28C261.79 109.28 261.691 109.115 261.691 109H263.691C263.691 108.089 262.972 107.28 262 107.28L262 109.28ZM262.308 111.88C262.308 111.997 262.208 112.16 262 112.16V110.16C261.028 110.16 260.308 110.968 260.308 111.88H262.308ZM262 111.6C262.208 111.6 262.308 111.763 262.308 111.88H260.308C260.308 112.791 261.028 113.6 262 113.6V111.6ZM261.691 111.88C261.691 111.765 261.79 111.6 262 111.6L262 113.6C262.972 113.6 263.691 112.791 263.691 111.88H261.691ZM262 112.16C261.79 112.16 261.691 111.995 261.691 111.88H263.691C263.691 110.969 262.972 110.16 262 110.16L262 112.16ZM262.308 114.76C262.308 114.877 262.208 115.04 262 115.04V113.04C261.028 113.04 260.308 113.848 260.308 114.76H262.308ZM262 114.48C262.208 114.48 262.308 114.643 262.308 114.76H260.308C260.308 115.671 261.028 116.48 262 116.48V114.48ZM261.691 114.76C261.691 114.645 261.79 114.48 262 114.48L262 116.48C262.972 116.48 263.691 115.67 263.691 114.76H261.691ZM262 115.04C261.79 115.04 261.691 114.875 261.691 114.76H263.691C263.691 113.849 262.972 113.04 262 113.04L262 115.04ZM262.308 117.64C262.308 117.757 262.208 117.92 262 117.92V115.92C261.028 115.92 260.308 116.728 260.308 117.64H262.308ZM262 117.36C262.208 117.36 262.308 117.523 262.308 117.64H260.308C260.308 118.551 261.028 119.36 262 119.36V117.36ZM261.691 117.64C261.691 117.525 261.79 117.36 262 117.36L262 119.36C262.972 119.36 263.691 118.551 263.691 117.64H261.691ZM262 117.92C261.79 117.92 261.691 117.755 261.691 117.64H263.691C263.691 116.729 262.972 115.92 262 115.92L262 117.92ZM262.308 120.52C262.308 120.637 262.208 120.8 262 120.8V118.8C261.028 118.8 260.308 119.608 260.308 120.52H262.308ZM262 120.24C262.208 120.24 262.308 120.403 262.308 120.52H260.308C260.308 121.431 261.028 122.24 262 122.24V120.24ZM261.691 120.52C261.691 120.405 261.79 120.24 262 120.24L262 122.24C262.972 122.24 263.691 121.431 263.691 120.52H261.691ZM262 120.8C261.79 120.8 261.691 120.635 261.691 120.52H263.691C263.691 119.609 262.972 118.8 262 118.8L262 120.8ZM262.308 123.4C262.308 123.517 262.208 123.68 262 123.68V121.68C261.028 121.68 260.308 122.488 260.308 123.4H262.308ZM262 123.12C262.208 123.12 262.308 123.283 262.308 123.4H260.308C260.308 124.311 261.028 125.12 262 125.12V123.12ZM261.691 123.4C261.691 123.285 261.79 123.12 262 123.12L262 125.12C262.972 125.12 263.691 124.31 263.691 123.4H261.691ZM262 123.68C261.79 123.68 261.691 123.515 261.691 123.4H263.691C263.691 122.489 262.972 121.68 262 121.68L262 123.68ZM262.308 126.28C262.308 126.397 262.208 126.56 262 126.56V124.56C261.028 124.56 260.308 125.368 260.308 126.28H262.308ZM262 126C262.208 126 262.308 126.163 262.308 126.28H260.308C260.308 127.191 261.028 128 262 128V126ZM261.691 126.28C261.691 126.165 261.79 126 262 126L262 128C262.972 128 263.691 127.19 263.691 126.28H261.691ZM262 126.56C261.79 126.56 261.691 126.395 261.691 126.28H263.691C263.691 125.369 262.972 124.56 262 124.56L262 126.56ZM262.308 129.16C262.308 129.277 262.208 129.44 262 129.44V127.44C261.028 127.44 260.308 128.248 260.308 129.16H262.308ZM262 128.88C262.208 128.88 262.308 129.043 262.308 129.16H260.308C260.308 130.071 261.028 130.88 262 130.88V128.88ZM261.691 129.16C261.691 129.045 261.79 128.88 262 128.88L262 130.88C262.972 130.88 263.691 130.07 263.691 129.16H261.691ZM262 129.44C261.79 129.44 261.691 129.275 261.691 129.16H263.691C263.691 128.249 262.972 127.44 262 127.44L262 129.44ZM262.308 132.04C262.308 132.157 262.208 132.32 262 132.32V130.32C261.028 130.32 260.308 131.128 260.308 132.04H262.308ZM262 131.76C262.208 131.76 262.308 131.923 262.308 132.04H260.308C260.308 132.951 261.028 133.76 262 133.76V131.76ZM261.691 132.04C261.691 131.925 261.79 131.76 262 131.76L262 133.76C262.972 133.76 263.691 132.95 263.691 132.04H261.691ZM262 132.32C261.79 132.32 261.691 132.155 261.691 132.04H263.691C263.691 131.129 262.972 130.32 262 130.32L262 132.32ZM262.308 134.92C262.308 135.037 262.208 135.2 262 135.2V133.2C261.028 133.2 260.308 134.008 260.308 134.92H262.308ZM262 134.64C262.208 134.64 262.308 134.803 262.308 134.92H260.308C260.308 135.831 261.028 136.64 262 136.64V134.64ZM261.691 134.92C261.691 134.805 261.79 134.64 262 134.64L262 136.64C262.972 136.64 263.691 135.83 263.691 134.92H261.691ZM262 135.2C261.79 135.2 261.691 135.035 261.691 134.92H263.691C263.691 134.009 262.972 133.2 262 133.2L262 135.2ZM262.308 137.8C262.308 137.917 262.208 138.08 262 138.08V136.08C261.028 136.08 260.308 136.888 260.308 137.8H262.308ZM262 137.52C262.208 137.52 262.308 137.683 262.308 137.8H260.308C260.308 138.711 261.028 139.52 262 139.52V137.52ZM261.691 137.8C261.691 137.685 261.79 137.52 262 137.52L262 139.52C262.972 139.52 263.691 138.71 263.691 137.8H261.691ZM262 138.08C261.79 138.08 261.691 137.915 261.691 137.8H263.691C263.691 136.889 262.972 136.08 262 136.08L262 138.08Z" fill="#28BEB2"/>
</svg>
